<svg xmlns="http://www.w3.org/2000/svg" xmlns:xlink="http://www.w3.org/1999/xlink" width="23.666671752929688" height="23.666656494140625" viewBox="0 0 23.666671752929688 23.666656494140625" fill="none"><path id="Shape" fill-rule="evenodd" style="fill:#EEEEEE" opacity="1" d="M12,23.5c-6.49999,0.16 -11.66999,-5 -11.83999,-11.5c-0.16,-6.50002 5,-11.67001 11.49999,-11.84001c6.5,-0.16 11.67,4.99999 11.84,11.50001c0.16,6.5 -5,11.67 -11.5,11.84zM1.83066,12.0005c0.17,5.5 4.67,10 10.17004,9.83c5.5,-0.17 9.83,-4.67 9.83,-10.17c-0.17,-5.49998 -4.67,-9.82998 -10.17,-9.82998c-5.50004,0 -9.83004,4.67 -9.83004,10.16998zM12.6607,16.8305h-1.66v-4.17h-4.17004v-1.66h4.17004v-4.16998h1.66v4.16998h4.17v1.66h-4.17z"></path></svg>