<svg xmlns="http://www.w3.org/2000/svg" xmlns:xlink="http://www.w3.org/1999/xlink" width="79.45051574707031" height="88.05024719238281" viewBox="0 0 79.45051574707031 88.05024719238281" fill="none"><g opacity="1" transform="translate(0 0)  rotate(0)"><g opacity="1" transform="translate(14.770263671875 0)  rotate(0)"><path id="矩形" fill-rule="evenodd" fill="url(#linear_0)" opacity="1" d="M0 0.57L0 9.15C0 9.46 0.26 9.72 0.57 9.72L49.77 9.72C50.08 9.72 50.34 9.46 50.34 9.15L50.34 0.57C50.34 0.26 50.08 0 49.77 0L0.57 0C0.26 0 0 0.26 0 0.57Z"></path><g opacity="1" transform="translate(6.2900390625 4.41998291015625)  rotate(0)"><g opacity="1" transform="translate(0 0)  rotate(0)"><path id="path-2" fill-rule="evenodd" style="fill:#F4F9FF" opacity="1" d="M0 11.49L19.33 22.9L38.65 11.49L38.65 0L0 0L0 11.49Z"></path></g><g opacity="1" transform="translate(0 0)  rotate(0)"><path id="矩形" fill-rule="evenodd" style="fill:#FFCE70" opacity="1" d="M0 14.14L3.6 14.14L3.6 0L0 0L0 14.14Z"></path></g><g opacity="1" transform="translate(5.389892578125 0)  rotate(0)"><path id="矩形" fill-rule="evenodd" style="fill:#FFCE70" opacity="1" d="M0 15.91L1.8 15.91L1.8 0L0 0L0 15.91Z"></path></g><g opacity="1" transform="translate(31.4599609375 0)  rotate(0)"><path id="矩形" fill-rule="evenodd" style="fill:#FFCE70" opacity="1" d="M0 15.91L1.8 15.91L1.8 0L0 0L0 15.91Z"></path></g><g opacity="1" transform="translate(35.06005859375 0)  rotate(0)"><path id="矩形" fill-rule="evenodd" style="fill:#FFCE70" opacity="1" d="M0 14.14L3.6 14.14L3.6 0L0 0L0 14.14Z"></path></g></g></g><g opacity="1" transform="translate(0 8.5997314453125)  rotate(0)"><path id="矩形" fill-rule="evenodd" style="fill:#FFCE70" opacity="1" d="M39.7889 79.4505L79.4505 39.7889L39.6616 3.8147e-06L0 39.6616L39.7889 79.4505Z"></path><path id="矩形" fill-rule="evenodd" style="fill:#FD9010" opacity="1" d="M40.2702 39.7303L0.000244141 39.6703L20.1702 59.8403L40.2702 39.7303Z"></path><path id="矩形" fill-rule="evenodd" style="fill:#FD9010" opacity="1" d="M39.7202 39.1803L39.7802 79.4503L59.8902 59.3503L39.7202 39.1803Z"></path><path id="矩形" fill-rule="evenodd" style="fill:#FD9010" opacity="1" d="M39.7303 40.2703L39.6703 0.000274658L19.5603 20.1003L39.7303 40.2703Z"></path><path id="矩形" fill-rule="evenodd" style="fill:#FD9010" opacity="1" d="M39.1802 39.7302L79.4502 39.7902L59.2802 19.6202L39.1802 39.7302Z"></path></g><g opacity="1" transform="translate(12.150146484375 20.79998779296875)  rotate(0)"><path id="矩形" fill-rule="evenodd" style="fill:#FFCE70" opacity="1" d="M0 56.06L56.06 56.06L56.06 0L0 0L0 56.06Z"></path><path id="矩形" fill-rule="evenodd" style="fill:#FD9010" opacity="1" d="M28.41 28.41L0 0L0 28.41L28.41 28.41Z"></path><path id="矩形" fill-rule="evenodd" style="fill:#FD9010" opacity="1" d="M28.41 27.65L0 56.06L28.41 56.06L28.41 27.65Z"></path><path id="矩形" fill-rule="evenodd" style="fill:#FD9010" opacity="1" d="M27.6499 28.41L56.0599 0L27.6499 0L27.6499 28.41Z"></path><path id="矩形" fill-rule="evenodd" style="fill:#FD9010" opacity="1" d="M27.6499 27.65L56.0599 56.06L56.0599 27.65L27.6499 27.65Z"></path></g><path id="椭圆形" fill-rule="evenodd" fill="url(#linear_1)" opacity="1" d="M39.9002 16.14C21.8602 16.14 7.24023 30.6 7.24023 48.44C7.24023 66.28 21.8602 80.74 39.9002 80.74C57.9402 80.74 72.5602 66.28 72.5602 48.44C72.5602 30.6 57.9402 16.14 39.9002 16.14Z"></path><path id="椭圆形" fill-rule="evenodd" fill="url(#linear_2)" opacity="1" d="M39.9004 21.45C24.8304 21.45 12.6104 33.54 12.6104 48.45C12.6104 63.35 24.8304 75.44 39.9004 75.44C54.9704 75.44 67.1904 63.35 67.1904 48.45C67.1904 33.54 54.9704 21.45 39.9004 21.45Z"></path><path id="椭圆形" style="fill:url(#linear_3); opacity:100" d="M67.1904,48.45c0,14.9 -12.22,26.99 -27.29,26.99c-15.07,0 -27.29,-12.09 -27.29,-26.99c0,-14.91 12.22,-27 27.29,-27c15.07,0 27.29,12.09 27.29,27zM39.9004,22.05c-3.6206,0 -7.08397,0.69183 -10.3901,2.0755c-3.1932,1.3364 -6.02127,3.223 -8.4842,5.6598c-2.46253,2.43633 -4.36893,5.23357 -5.7192,8.3917c-1.39767,3.26893 -2.0965,6.69327 -2.0965,10.273c0,3.57727 0.6988,6.99967 2.0964,10.2672c1.3504,3.15687 3.2568,5.9531 5.7192,8.3887c2.46307,2.43627 5.29117,4.3225 8.4843,5.6587c3.3062,1.3836 6.76957,2.0754 10.3901,2.0754c3.62047,0 7.08383,-0.6918 10.3901,-2.0754c3.19307,-1.3362 6.02113,-3.22243 8.4842,-5.6587c2.4624,-2.4356 4.3688,-5.23183 5.7192,-8.3887c1.3976,-3.26753 2.09643,-6.68993 2.0965,-10.2672c0,-3.57973 -0.69887,-7.00407 -2.0966,-10.273c-1.35027,-3.15813 -3.25667,-5.95537 -5.7192,-8.3917c-2.46293,-2.4368 -5.291,-4.3234 -8.4842,-5.6598c-3.30607,-1.38367 -6.7694,-2.0755 -10.39,-2.0755z"></path><g id="椭圆形" filter="url(#filter_56)"><path id="椭圆形" fill-rule="evenodd" fill="url(#linear_4)" opacity="1" d="M39.9103 24.1C26.3203 24.1 15.3003 35 15.3003 48.44C15.3003 61.87 26.3203 72.77 39.9103 72.77C53.4903 72.77 64.5103 61.87 64.5103 48.44C64.5103 35 53.4903 24.1 39.9103 24.1Z"></path></g><path id="Vector" fill-rule="evenodd" fill="url(#linear_5)" opacity="1" d="M46.4602 52.62L45.7002 52.17C45.6802 52.2 45.6602 52.23 45.6402 52.26C45.6202 52.3 45.6002 52.33 45.5802 52.37L46.7502 53.04L46.7502 53.04L46.3502 52.81L46.4602 52.62ZM46.7502 53.04L46.8602 52.85L46.4602 52.62L46.3502 52.81L46.7502 53.04ZM46.4702 52.62L48.0202 53.52C48.3202 52.89 48.0902 52.13 47.4802 51.77C46.8602 51.42 46.0902 51.6 45.7002 52.17L46.4602 52.62L46.4702 52.62ZM46.8602 52.85L46.7502 53.04L47.9102 53.71C47.9302 53.68 47.9502 53.64 47.9702 53.61C47.9902 53.58 48.0002 53.55 48.0202 53.52L46.4702 52.62L46.4602 52.62L46.8602 52.85ZM46.5502 40.87L46.6602 40.87L46.6602 40.34C46.6302 40.33 46.5902 40.33 46.5502 40.33C46.5102 40.33 46.4802 40.33 46.4402 40.34L46.4402 40.8L46.5002 40.77L46.5502 40.87ZM46.4402 40.8L46.4402 40.87L46.5502 40.87L46.5002 40.77L46.4402 40.8ZM46.6102 40.96L46.1502 41.23C46.2502 41.34 46.3902 41.41 46.5502 41.41C46.8502 41.41 47.0902 41.16 47.0902 40.87C47.0902 40.61 46.9102 40.39 46.6602 40.34L46.6602 40.87L46.5502 40.87L46.6102 40.96ZM46.4402 40.87L46.4402 40.8L46.0402 41.03C46.0702 41.11 46.1002 41.17 46.1502 41.23L46.6102 40.96L46.5502 40.87L46.4402 40.87ZM56.7402 51.23L56.7402 51.7C56.8202 51.71 56.8902 51.71 56.9702 51.7L56.9702 51.17L56.8502 51.17L56.8002 51.26L56.7402 51.23ZM56.8502 51.17L56.7402 51.17L56.7402 51.23L56.8002 51.26L56.8502 51.17ZM56.3402 51C56.2602 51.24 56.3602 51.5 56.5902 51.63C56.6402 51.66 56.6902 51.68 56.7402 51.7L56.7402 51.23L56.3402 51ZM56.7402 51.17L56.8502 51.17L56.9102 51.07L56.4502 50.81C56.4302 50.83 56.4102 50.86 56.3902 50.9C56.3702 50.93 56.3502 50.96 56.3402 51L56.7402 51.23L56.7402 51.17ZM53.1102 49.13L50.8102 50.46C50.8902 50.7 50.7902 50.97 50.5702 51.1C50.3102 51.26 49.9702 51.17 49.8302 50.91C49.7502 50.76 49.7402 50.6 49.7902 50.46L47.4902 49.13L44.2502 51C44.2702 51.05 44.2802 51.11 44.2802 51.17C44.2802 51.23 44.2702 51.28 44.2502 51.34L45.7002 52.17C46.0902 51.6 46.8602 51.42 47.4802 51.77C48.0902 52.13 48.3202 52.89 48.0202 53.52L56.4502 58.4C56.5302 58.32 56.6302 58.26 56.7402 58.23L56.7402 51.7C56.6902 51.68 56.6402 51.66 56.5902 51.63C56.3602 51.5 56.2602 51.24 56.3402 51L53.1102 49.13ZM56.3902 50.9C56.4102 50.86 56.4302 50.83 56.4502 50.81L53.3302 49L53.1102 49.13L56.3402 51C56.3502 50.96 56.3702 50.93 56.3902 50.9ZM52.8902 49L50.6902 50.27C50.7202 50.3 50.7402 50.33 50.7602 50.37C50.7802 50.4 50.8002 50.43 50.8102 50.46L53.1102 49.13L52.8902 49ZM53.3302 49L53.1102 48.87L52.8902 49L53.1102 49.13L53.3302 49ZM50.7002 47.73C50.6602 47.78 50.6202 47.81 50.5702 47.84C50.3402 47.97 50.0602 47.92 49.9002 47.73L47.7102 49L49.9002 50.27C49.9402 50.23 49.9802 50.2 50.0302 50.17C50.2502 50.04 50.5302 50.09 50.6902 50.27L52.8902 49L50.7002 47.73ZM53.1102 48.87L50.8102 47.54C50.7902 47.61 50.7502 47.68 50.7002 47.73L52.8902 49L53.1102 48.87ZM50.3002 47.5L49.9002 47.73C50.0602 47.92 50.3402 47.97 50.5702 47.84C50.6202 47.81 50.6602 47.78 50.7002 47.73L50.3002 47.5ZM50.8102 47.54L50.3502 47.28L50.3002 47.37L50.3502 47.47L50.3002 47.5L50.7002 47.73C50.7502 47.68 50.7902 47.61 50.8102 47.54ZM50.2402 47.47L50.3002 47.37L50.2402 47.28L49.7802 47.54C49.8002 47.58 49.8102 47.61 49.8302 47.64C49.8502 47.68 49.8702 47.71 49.9002 47.73L50.3002 47.5L50.2402 47.47ZM50.3502 47.47L50.3002 47.37L50.2402 47.47L50.3002 47.5L50.3502 47.47ZM45.5802 52.37L44.1402 51.53C44.0602 51.61 43.9602 51.67 43.8502 51.69L43.8502 55.44L46.1502 56.77C46.3202 56.58 46.6002 56.53 46.8202 56.67C47.0802 56.82 47.1702 57.14 47.0202 57.4C46.9402 57.54 46.8102 57.63 46.6602 57.66L46.6602 60.33L49.9002 62.2C49.9302 62.16 49.9802 62.12 50.0302 62.1C50.2502 61.96 50.5402 62.01 50.7002 62.2L56.3402 58.93C56.3302 58.88 56.3202 58.82 56.3202 58.76C56.3202 58.7 56.3302 58.65 56.3402 58.6L47.9102 53.71C47.5102 54.27 46.7302 54.46 46.1302 54.11C45.5202 53.75 45.2902 52.99 45.5802 52.37ZM47.9102 53.71L46.7502 53.04L46.7502 53.04L45.5802 52.37C45.2902 52.99 45.5202 53.75 46.1302 54.11C46.7302 54.46 47.5102 54.27 47.9102 53.71ZM45.6402 52.26C45.6602 52.23 45.6802 52.2 45.7002 52.17L44.2502 51.34C44.2302 51.41 44.1902 51.47 44.1402 51.53L45.5802 52.37C45.6002 52.33 45.6202 52.3 45.6402 52.26ZM47.9102 53.71L56.3402 58.6C56.3702 58.53 56.4002 58.46 56.4502 58.4L48.0202 53.52C48.0002 53.55 47.9902 53.58 47.9702 53.61C47.9502 53.64 47.9302 53.68 47.9102 53.71ZM33.5602 40.8L33.5602 40.34C33.4802 40.32 33.4102 40.32 33.3402 40.34L33.3402 40.87L33.4502 40.87L33.5002 40.77L33.5602 40.8ZM33.4502 40.87L33.5602 40.87L33.5602 40.8L33.5002 40.77L33.4502 40.87ZM33.9602 41.03C34.0402 40.8 33.9402 40.53 33.7202 40.4C33.6702 40.37 33.6102 40.35 33.5602 40.34L33.5602 40.8L33.9602 41.03ZM33.5602 40.87L33.4502 40.87L33.3902 40.96L33.8502 41.23C33.8702 41.2 33.8902 41.17 33.9102 41.14C33.9302 41.1 33.9502 41.07 33.9602 41.03L33.5602 40.8L33.5602 40.87ZM36.1502 42.3L36.1502 39.77C36.1002 39.76 36.0402 39.74 35.9902 39.71C35.7602 39.57 35.6702 39.31 35.7502 39.07L33.5602 37.81L33.5602 40.34C33.6102 40.35 33.6702 40.37 33.7202 40.4C33.9402 40.53 34.0402 40.8 33.9602 41.03L36.1502 42.3ZM33.9102 41.14C33.8902 41.17 33.8702 41.2 33.8502 41.23L36.1502 42.56L36.1502 42.3L33.9602 41.03C33.9502 41.07 33.9302 41.1 33.9102 41.14ZM36.3702 42.43L36.3702 39.77C36.3002 39.79 36.2202 39.79 36.1502 39.77L36.1502 42.3L36.3702 42.43ZM36.1502 42.56L36.3702 42.69L36.3702 42.43L36.1502 42.3L36.1502 42.56ZM39.6002 44.31C39.6402 44.26 39.6802 44.23 39.7402 44.2C39.7902 44.17 39.8402 44.15 39.8902 44.14L39.8902 42.46C39.2002 42.41 38.6502 41.83 38.6502 41.12C38.6502 40.41 39.2002 39.83 39.8902 39.77L39.8902 30.01C39.7802 29.99 39.6802 29.93 39.6002 29.84L33.9602 33.1C33.9802 33.16 33.9802 33.21 33.9802 33.27C33.9802 33.53 33.8002 33.75 33.5602 33.8L33.5602 37.55L35.8602 38.88C36.0202 38.69 36.3002 38.64 36.5302 38.77C36.7902 38.92 36.8802 39.25 36.7302 39.51C36.6402 39.65 36.5102 39.74 36.3702 39.77L36.3702 42.43L39.6002 44.31ZM36.3702 42.69L39.4902 44.5C39.5102 44.43 39.5502 44.36 39.6002 44.31L36.3702 42.43L36.3702 42.69ZM39.8902 44.47L39.8902 44.14C39.8402 44.15 39.7902 44.17 39.7402 44.2C39.6802 44.23 39.6402 44.26 39.6002 44.31L39.8902 44.47ZM39.4902 44.5L39.8902 44.73L39.8902 44.47L39.6002 44.31C39.5502 44.36 39.5102 44.43 39.4902 44.5ZM40.0002 44.54L40.1202 44.47L40.1202 44.14C40.0402 44.12 39.9702 44.12 39.8902 44.14L39.8902 44.47L40.0002 44.54ZM39.8902 44.73L39.9502 44.76L40.0002 44.67L39.9502 44.57L40.0002 44.54L39.8902 44.47L39.8902 44.73ZM40.0602 44.57L40.0002 44.67L40.0602 44.76L40.1202 44.73L40.1202 44.47L40.0002 44.54L40.0602 44.57ZM39.9502 44.57L40.0002 44.67L40.0602 44.57L40.0002 44.54L39.9502 44.57ZM30.1002 50.27L32.2902 49L30.1102 47.73C30.0702 47.78 30.0202 47.81 29.9702 47.84C29.7402 47.97 29.4602 47.92 29.3002 47.73L27.1102 49L29.3102 50.27C29.3402 50.23 29.3802 50.2 29.4302 50.17C29.6602 50.04 29.9402 50.09 30.1002 50.27ZM29.3102 50.27L29.7002 50.5L30.1002 50.27C29.9402 50.09 29.6602 50.04 29.4302 50.17C29.3802 50.2 29.3402 50.23 29.3102 50.27ZM30.1702 50.37C30.1902 50.4 30.2002 50.43 30.2102 50.46L32.5202 49.13L32.2902 49L30.1002 50.27C30.1302 50.3 30.1502 50.33 30.1702 50.37ZM29.7002 50.5L29.7602 50.53L29.7002 50.63L29.7602 50.72L30.2102 50.46C30.2002 50.43 30.1902 50.4 30.1702 50.37C30.1502 50.33 30.1302 50.3 30.1002 50.27L29.7002 50.5ZM33.5602 57.66L33.5602 57.2L33.5002 57.23L33.4502 57.13L33.3402 57.13L33.3402 57.66C33.3702 57.67 33.4102 57.67 33.4502 57.67C33.4902 57.67 33.5202 57.67 33.5602 57.66ZM33.3402 57.66L33.3402 60.33L33.5602 60.2L33.5602 57.66C33.5202 57.67 33.4902 57.67 33.4502 57.67C33.4102 57.67 33.3702 57.67 33.3402 57.66ZM33.9802 57.13C33.9802 57.08 33.9802 57.02 33.9602 56.97L33.5602 57.2L33.5602 57.66C33.8002 57.61 33.9802 57.39 33.9802 57.13ZM33.5602 60.2L35.7502 58.93C35.7302 58.88 35.7202 58.82 35.7202 58.76C35.7202 58.5 35.9102 58.28 36.1502 58.23L36.1502 55.7L33.9602 56.97C33.9802 57.02 33.9802 57.08 33.9802 57.13C33.9802 57.39 33.8002 57.61 33.5602 57.66L33.5602 60.2ZM39.8902 68L39.8902 58.23C39.2002 58.17 38.6602 57.59 38.6602 56.88C38.6602 56.18 39.2002 55.6 39.8902 55.54L39.8902 53.87C39.7802 53.85 39.6802 53.79 39.6002 53.71L36.3702 55.57L36.3702 58.23C36.6102 58.28 36.8002 58.5 36.8002 58.76C36.8002 59.06 36.5602 59.3 36.2602 59.3C36.1002 59.3 35.9602 59.23 35.8602 59.12L33.5602 60.46L33.5602 64.2C33.6102 64.21 33.6702 64.23 33.7202 64.26C33.9402 64.39 34.0402 64.66 33.9602 64.9L39.6002 68.17C39.6402 68.13 39.6802 68.09 39.7402 68.06C39.7902 68.03 39.8402 68.01 39.8902 68ZM39.6002 68.17L39.8902 68.34L39.8902 68C39.8402 68.01 39.7902 68.03 39.7402 68.06C39.6802 68.09 39.6402 68.13 39.6002 68.17ZM40.1202 68L40.1202 58.23C40.0802 58.23 40.0402 58.23 40.0002 58.23C39.9702 58.23 39.9302 58.23 39.8902 58.23L39.8902 68C39.9702 67.98 40.0402 67.98 40.1202 68ZM39.8902 68.34L40.0002 68.4L40.1202 68.34L40.1202 68C40.0402 67.98 39.9702 67.98 39.8902 68L39.8902 68.34ZM40.4102 68.17L46.0402 64.9C46.0202 64.84 46.0202 64.79 46.0202 64.73C46.0202 64.47 46.2002 64.25 46.4402 64.2L46.4402 60.46L44.1502 59.12C43.9802 59.32 43.7002 59.36 43.4702 59.24C43.2102 59.08 43.1202 58.76 43.2702 58.5C43.3602 58.36 43.4902 58.27 43.6302 58.24L43.6302 55.57L40.4002 53.7C40.3602 53.74 40.3202 53.78 40.2602 53.81C40.2202 53.84 40.1702 53.86 40.1202 53.87L40.1202 55.54C40.8102 55.6 41.3502 56.18 41.3502 56.88C41.3502 57.59 40.8102 58.17 40.1202 58.23L40.1202 68C40.2302 68.02 40.3302 68.08 40.4102 68.17ZM40.1202 68.34L40.4102 68.17C40.3302 68.08 40.2302 68.02 40.1202 68L40.1202 68.34ZM40.4702 68.26C40.4902 68.29 40.5002 68.33 40.5102 68.36L46.1502 65.09C46.1002 65.03 46.0702 64.97 46.0402 64.9L40.4102 68.17C40.4302 68.2 40.4502 68.23 40.4702 68.26ZM40.1202 68.34L40.1202 68.59L40.5102 68.36C40.5002 68.33 40.4902 68.29 40.4702 68.26C40.4502 68.23 40.4302 68.2 40.4102 68.17L40.1202 68.34ZM56.9702 46.31L56.9702 46.83L56.8502 46.83L56.9102 46.93L56.4502 47.19C56.5502 47.3 56.7002 47.37 56.8502 47.37C57.1502 47.37 57.3902 47.13 57.3902 46.83C57.3902 46.57 57.2102 46.36 56.9702 46.31ZM56.8502 46.29C56.8202 46.29 56.7802 46.3 56.7402 46.31L56.7402 46.77L56.8002 46.74L56.8502 46.83L56.9702 46.83L56.9702 46.31C56.9302 46.3 56.8902 46.29 56.8502 46.29ZM56.9702 39.77C56.8902 39.79 56.8202 39.79 56.7402 39.77L56.7402 46.31C56.7802 46.3 56.8202 46.29 56.8502 46.29C56.8902 46.29 56.9302 46.3 56.9702 46.31L56.9702 39.77ZM50.8102 35.61C50.8602 35.47 50.8502 35.31 50.7602 35.17C50.6202 34.91 50.2902 34.82 50.0302 34.97C49.8002 35.1 49.7002 35.38 49.7902 35.61L50.2402 35.35L50.3002 35.45L50.3502 35.35L50.8102 35.61ZM50.3002 35.45L50.3502 35.54L50.3002 35.57L50.6902 35.8C50.7502 35.75 50.7902 35.68 50.8102 35.61L50.3502 35.35L50.3002 35.45ZM50.6902 35.8L56.3402 39.07C56.3502 39.04 56.3702 39 56.3902 38.97C56.4102 38.94 56.4302 38.91 56.4502 38.88L50.8102 35.61C50.7902 35.68 50.7502 35.75 50.6902 35.8ZM56.8602 39.11L57.2602 38.88C57.2202 38.84 57.1702 38.8 57.1202 38.77C56.9002 38.64 56.6202 38.69 56.4502 38.88L56.8602 39.11ZM56.3902 38.97C56.3702 39 56.3502 39.04 56.3402 39.07L56.6302 39.24L56.8602 39.11L56.4502 38.88C56.4302 38.91 56.4102 38.94 56.3902 38.97ZM56.9102 39.14L56.8502 39.24L56.9702 39.24L56.9702 39.31L57.3702 39.07C57.3502 39 57.3102 38.94 57.2602 38.88L56.8602 39.11L56.9102 39.14ZM56.6302 39.24L56.7402 39.3L56.7402 39.24L56.8502 39.24L56.9102 39.14L56.8602 39.11L56.6302 39.24ZM36.2602 51.17L36.3202 51.07L36.2602 51.04L36.0402 51.17L36.1502 51.23L36.1502 51.17L36.2602 51.17ZM36.1502 51.23L36.2002 51.26L36.2602 51.17L36.1502 51.17L36.1502 51.23ZM36.3702 51.17L36.3702 51.23L36.7702 51C36.7502 50.93 36.7102 50.86 36.6602 50.81L36.2602 51.04L36.3202 51.07L36.2602 51.17L36.3702 51.17ZM36.2002 51.26L36.1502 51.23L36.1502 51.36L36.3702 51.23L36.3702 51.17L36.2602 51.17L36.2002 51.26ZM43.7402 46.83L43.6302 46.83L43.6302 46.77L43.2302 47C43.2502 47.07 43.2902 47.14 43.3402 47.2L43.7402 46.96L43.6802 46.93L43.7402 46.83ZM43.7402 46.96L43.9702 46.84L43.8502 46.77L43.8502 46.83L43.7402 46.83L43.6802 46.93L43.7402 46.96ZM43.8002 46.74L43.8502 46.77L43.8502 46.64L43.6302 46.77L43.6302 46.83L43.7402 46.83L43.8002 46.74ZM43.8502 46.83L43.8502 46.77L43.8002 46.74L43.7402 46.83L43.8502 46.83ZM36.2602 58.76L36.3202 58.86L35.8602 59.12C35.9602 59.23 36.1002 59.3 36.2602 59.3C36.5602 59.3 36.8002 59.06 36.8002 58.76C36.8002 58.5 36.6102 58.28 36.3702 58.23L36.3702 58.76L36.2602 58.76ZM36.3702 58.23C36.3402 58.23 36.3002 58.22 36.2602 58.22C36.2202 58.22 36.1802 58.23 36.1502 58.23L36.1502 58.7L36.2002 58.66L36.2602 58.76L36.3702 58.76L36.3702 58.23ZM36.1502 58.76L36.1502 58.7L35.7502 58.93C35.7702 59 35.8102 59.07 35.8602 59.12L36.3202 58.86L36.2602 58.76L36.1502 58.76ZM36.2002 58.66L36.1502 58.7L36.1502 58.76L36.2602 58.76L36.2002 58.66ZM23.0302 39.77L23.0302 39.31L22.6302 39.07C22.6202 39.13 22.6102 39.18 22.6102 39.24C22.6102 39.5 22.7902 39.72 23.0302 39.77ZM22.7402 38.88L22.0602 38.48C22.0402 38.52 22.0302 38.55 22.0102 38.58C21.9902 38.62 21.9702 38.65 21.9502 38.68L22.6302 39.07C22.6602 39 22.7002 38.94 22.7402 38.88ZM23.0302 39.31L23.0302 39.24L23.1502 39.24L23.0902 39.14L23.1402 39.11L22.7402 38.88C22.7002 38.94 22.6602 39 22.6302 39.07L23.0302 39.31ZM23.1402 39.11L23.5502 38.88C23.4502 38.77 23.3002 38.7 23.1502 38.7C22.9902 38.7 22.8402 38.77 22.7402 38.88L23.1402 39.11ZM29.1902 62.39C29.1402 62.53 29.1602 62.69 29.2402 62.83C29.3802 63.09 29.7102 63.18 29.9702 63.03C30.2002 62.9 30.3002 62.63 30.2102 62.39L29.7602 62.66L29.7002 62.56L29.6502 62.66L29.1902 62.39ZM29.7002 62.56L29.6502 62.47L29.7002 62.43L29.3002 62.2C29.2502 62.26 29.2102 62.32 29.1902 62.39L29.6502 62.66L29.7002 62.56ZM29.3002 62.2L23.6602 58.93C23.6302 59 23.5902 59.06 23.5402 59.12L29.1902 62.39C29.2102 62.32 29.2502 62.26 29.3002 62.2ZM23.1502 58.89L22.7502 59.13C22.8802 59.27 23.0802 59.34 23.2802 59.28C23.3902 59.25 23.4802 59.2 23.5402 59.12L23.1502 58.89ZM23.6602 58.93L23.3702 58.76L23.1502 58.89L23.5402 59.12C23.5902 59.06 23.6302 59 23.6602 58.93ZM23.0902 58.86L23.1502 58.76L23.0302 58.76L23.0302 58.7L22.6302 58.93C22.6602 59.01 22.7002 59.07 22.7502 59.13L23.1502 58.89L23.0902 58.86ZM23.3702 58.76L23.2602 58.7L23.2602 58.76L23.1502 58.76L23.0902 58.86L23.1502 58.89L23.3702 58.76ZM30.2102 62.39L33.3402 60.58L33.3402 60.33L30.1002 62.2C30.1302 62.23 30.1502 62.26 30.1702 62.29C30.1902 62.33 30.2002 62.36 30.2102 62.39ZM30.1002 62.2L29.7002 62.43L29.7602 62.47L29.7002 62.56L29.7602 62.66L30.2102 62.39C30.2002 62.36 30.1902 62.33 30.1702 62.29C30.1502 62.26 30.1302 62.23 30.1002 62.2ZM46.5502 41.41C46.3902 41.41 46.2502 41.34 46.1502 41.23L43.8502 42.56L43.8502 46.3C43.9002 46.32 43.9602 46.34 44.0102 46.37C44.0602 46.4 44.1002 46.43 44.1402 46.48L45.5902 45.64C45.2802 45.01 45.5202 44.25 46.1302 43.89C46.7502 43.53 47.5202 43.71 47.9102 44.29L56.3402 39.41C56.3102 39.3 56.3002 39.18 56.3402 39.07L50.6902 35.8C50.6602 35.84 50.6202 35.88 50.5702 35.9C50.3402 36.04 50.0602 35.99 49.9002 35.8L46.6602 37.68L46.6602 40.34C46.9102 40.39 47.0902 40.61 47.0902 40.87C47.0902 41.16 46.8502 41.41 46.5502 41.41ZM46.6602 37.68L46.4402 37.8L46.4402 40.34C46.4802 40.33 46.5102 40.33 46.5502 40.33C46.5902 40.33 46.6302 40.33 46.6602 40.34L46.6602 37.68ZM22.6302 58.93L23.0302 58.7L23.0302 58.23C23.0202 58.23 23.0102 58.24 23.0002 58.24C22.7202 58.32 22.5502 58.61 22.6202 58.9C22.6302 58.91 22.6302 58.92 22.6302 58.93ZM21.9502 59.33C21.9702 59.36 21.9902 59.39 22.0102 59.43C22.0302 59.46 22.0402 59.49 22.0602 59.52L22.7502 59.13C22.7002 59.07 22.6602 59.01 22.6302 58.93L21.9502 59.33ZM36.0402 51.17L35.7502 51.34C35.7702 51.41 35.8102 51.47 35.8602 51.53L36.1502 51.36L36.1502 51.23L36.0402 51.17ZM35.7502 51C35.7102 51.11 35.7102 51.23 35.7502 51.34L36.0402 51.17L35.7502 51ZM36.2602 51.04L35.8602 50.81C35.8402 50.83 35.8102 50.86 35.7902 50.9C35.7802 50.93 35.7602 50.96 35.7502 51L36.0402 51.17L36.2602 51.04ZM32.5202 49.13L30.2102 50.46C30.3002 50.7 30.2002 50.97 29.9702 51.1C29.7102 51.26 29.3802 51.17 29.2402 50.91C29.1502 50.76 29.1402 50.6 29.1902 50.46L26.8902 49.13L23.6602 51C23.6702 51.05 23.6802 51.11 23.6802 51.17C23.6802 51.43 23.5002 51.64 23.2602 51.69L23.2602 58.23C23.3702 58.26 23.4702 58.32 23.5502 58.4L31.9802 53.52C31.6902 52.89 31.9102 52.13 32.5202 51.78C33.1402 51.42 33.9102 51.6 34.3002 52.18L35.7502 51.34C35.7102 51.23 35.7102 51.11 35.7502 51L32.5202 49.13ZM35.7902 50.9C35.8102 50.86 35.8402 50.83 35.8602 50.81L32.7402 49L32.5202 49.13L35.7502 51C35.7602 50.96 35.7802 50.93 35.7902 50.9ZM32.7402 49L32.5202 48.87L32.2902 49L32.5202 49.13L32.7402 49ZM32.5202 48.87L30.2202 47.54C30.1902 47.61 30.1602 47.68 30.1102 47.73L32.2902 49L32.5202 48.87ZM29.7002 47.5L29.3002 47.73C29.4602 47.92 29.7402 47.97 29.9702 47.84C30.0202 47.81 30.0702 47.78 30.1102 47.73L29.7002 47.5ZM30.2202 47.54L29.7602 47.28L29.7002 47.37L29.7602 47.47L29.7002 47.5L30.1102 47.73C30.1602 47.68 30.1902 47.61 30.2202 47.54ZM29.6502 47.47L29.7002 47.37L29.6502 47.28L29.1902 47.54C29.2002 47.58 29.2202 47.61 29.2402 47.64C29.2602 47.68 29.2802 47.71 29.3002 47.73L29.7002 47.5L29.6502 47.47ZM29.7602 47.47L29.7002 47.37L29.6502 47.47L29.7002 47.5L29.7602 47.47ZM41.0802 70.92C41.0802 70.36 40.6602 69.9 40.1202 69.85L40.1202 70.92L39.8902 70.92L39.8902 69.85C39.3502 69.9 38.9302 70.36 38.9302 70.92C38.9302 71.52 39.4102 72 40.0002 72C40.6002 72 41.0802 71.52 41.0802 70.92ZM36.2602 46.96L36.6602 47.19C36.7102 47.14 36.7502 47.07 36.7702 47L36.3702 46.77L36.3702 46.83L36.2602 46.83L36.3202 46.93L36.2602 46.96ZM36.2602 46.83L36.1502 46.83L36.1502 46.77L36.0402 46.83L36.2602 46.96L36.3202 46.93L36.2602 46.83ZM35.8602 47.19C35.9602 47.3 36.1002 47.37 36.2602 47.37C36.4202 47.37 36.5602 47.3 36.6602 47.19L36.2602 46.96L35.8602 47.19ZM36.0402 46.83L35.7502 47C35.7702 47.07 35.8102 47.14 35.8602 47.19L36.2602 46.96L36.0402 46.83ZM32.7402 49L35.8602 50.81C36.0202 50.63 36.3002 50.57 36.5302 50.7C36.5802 50.73 36.6302 50.77 36.6602 50.81L39.7802 49L36.6602 47.19C36.5602 47.3 36.4202 47.37 36.2602 47.37C36.1002 47.37 35.9602 47.3 35.8602 47.19L32.7402 49ZM35.7502 47L32.5202 48.87L32.7402 49L35.8602 47.19C35.8102 47.14 35.7702 47.07 35.7502 47ZM29.7602 50.72L29.7002 50.63L29.6502 50.72L29.1902 50.46C29.1402 50.6 29.1502 50.76 29.2402 50.91C29.3802 51.17 29.7102 51.26 29.9702 51.1C30.2002 50.97 30.3002 50.7 30.2102 50.46L29.7602 50.72ZM56.3402 58.93L56.6302 58.76L56.3402 58.6C56.3302 58.65 56.3202 58.7 56.3202 58.76C56.3202 58.82 56.3302 58.88 56.3402 58.93ZM56.4502 59.12L56.8502 58.89L56.6302 58.76L56.3402 58.93C56.3702 59 56.4102 59.07 56.4502 59.12ZM50.7002 62.2C50.7202 62.23 50.7402 62.26 50.7602 62.29C50.7802 62.33 50.8002 62.36 50.8102 62.39L56.4502 59.12C56.4102 59.07 56.3702 59 56.3402 58.93L50.7002 62.2ZM56.8502 59.3C57.0102 59.3 57.1502 59.23 57.2502 59.12L56.8502 58.89L56.4502 59.12C56.5502 59.23 56.7002 59.3 56.8502 59.3ZM46.4402 33.34L46.4402 33.8C46.5202 33.82 46.5902 33.82 46.6602 33.8L46.6602 33.27L46.5502 33.27L46.5002 33.37L46.4402 33.34ZM46.5502 33.27L46.4402 33.27L46.4402 33.34L46.5002 33.37L46.5502 33.27ZM46.0402 33.1C45.9602 33.34 46.0602 33.61 46.2802 33.74C46.3402 33.77 46.3902 33.79 46.4402 33.8L46.4402 33.34L46.0402 33.1ZM46.4402 33.27L46.5502 33.27L46.6102 33.17L46.1502 32.91C46.1302 32.94 46.1102 32.97 46.0902 33C46.0702 33.03 46.0502 33.07 46.0402 33.1L46.4402 33.34L46.4402 33.27ZM40.4002 29.84C40.3602 29.88 40.3202 29.92 40.2602 29.95C40.2202 29.97 40.1702 29.99 40.1202 30.01L40.1202 39.77C40.8002 39.84 41.3402 40.41 41.3402 41.12C41.3402 41.82 40.8002 42.4 40.1202 42.46L40.1202 44.14C40.2302 44.16 40.3302 44.22 40.4102 44.31L43.6302 42.43L43.6302 39.77C43.3902 39.72 43.2002 39.5 43.2002 39.24C43.2002 38.94 43.4402 38.7 43.7402 38.7C43.9002 38.7 44.0402 38.77 44.1402 38.88L46.4402 37.55L46.4402 33.8C46.3902 33.79 46.3402 33.77 46.2802 33.74C46.0602 33.61 45.9602 33.34 46.0402 33.1L40.4002 29.84ZM46.0902 33C46.1102 32.97 46.1302 32.94 46.1502 32.91L40.5102 29.64C40.4902 29.71 40.4502 29.78 40.4002 29.84L46.0402 33.1C46.0502 33.07 46.0702 33.03 46.0902 33ZM40.1202 29.67L40.1202 30.01C40.1702 29.99 40.2202 29.97 40.2602 29.95C40.3202 29.92 40.3602 29.88 40.4002 29.84L40.1202 29.67ZM40.5102 29.64L40.1202 29.41L40.1202 29.67L40.4002 29.84C40.4502 29.78 40.4902 29.71 40.5102 29.64ZM40.0002 29.61L39.8902 29.67L39.8902 30.01C39.9702 30.02 40.0402 30.02 40.1202 30.01L40.1202 29.67L40.0002 29.61ZM40.1202 29.41L40.0602 29.38L40.0002 29.48L40.0602 29.58L40.0002 29.61L40.1202 29.67L40.1202 29.41ZM39.9502 29.57L40.0002 29.48L39.9502 29.38L39.8902 29.41L39.8902 29.67L40.0002 29.61L39.9502 29.57ZM40.0602 29.58L40.0002 29.48L39.9502 29.57L40.0002 29.61L40.0602 29.58ZM40.1202 48.94L40.1202 48.81L40.0002 48.87L40.0602 48.9L40.1202 48.94ZM40.0002 49ZM40.0002 49ZM40.0002 49ZM40.2302 49L43.3402 47.2C43.2902 47.14 43.2502 47.07 43.2302 47L40.1202 48.81L40.1202 48.94L40.2302 49ZM40.1202 49L40.1202 49.06L40.2302 49L40.1202 48.94L40.1202 49ZM43.3402 50.81C43.4402 50.7 43.5802 50.63 43.7402 50.63C43.9002 50.63 44.0402 50.7 44.1402 50.81L47.2602 49L44.1402 47.2C43.9802 47.38 43.7002 47.43 43.4702 47.3C43.4202 47.27 43.3802 47.24 43.3402 47.2L40.2302 49L43.3402 50.81ZM40.1202 49.06L40.1202 49.19L43.2302 51C43.2502 50.93 43.2902 50.86 43.3402 50.81L40.2302 49L40.1202 49.06ZM43.7402 51.04L44.1402 50.81C44.0402 50.7 43.9002 50.63 43.7402 50.63C43.5802 50.63 43.4402 50.7 43.3402 50.81L43.7402 51.04ZM43.2302 51L43.6302 51.23L43.6302 51.17L43.7402 51.17L43.6802 51.07L43.7402 51.04L43.3402 50.81C43.2902 50.86 43.2502 50.93 43.2302 51ZM43.9602 51.17L44.2502 51C44.2302 50.93 44.1902 50.86 44.1402 50.81L43.7402 51.04L43.9602 51.17ZM43.6802 51.07L43.7402 51.17L43.8502 51.17L43.8502 51.23L43.9602 51.17L43.7402 51.04L43.6802 51.07ZM44.2502 51.34C44.2702 51.28 44.2802 51.23 44.2802 51.17C44.2802 51.11 44.2702 51.05 44.2502 51L43.9602 51.17L44.2502 51.34ZM43.8502 51.23L43.8502 51.36L44.1402 51.53C44.1902 51.47 44.2302 51.41 44.2502 51.34L43.9602 51.17L43.8502 51.23ZM44.1402 47.2L43.7402 46.96L43.3402 47.2C43.3802 47.24 43.4202 47.27 43.4702 47.3C43.7002 47.43 43.9802 47.38 44.1402 47.2ZM43.2702 46.56C43.3602 46.42 43.4902 46.33 43.6302 46.3L43.6302 42.69L40.5102 44.5C40.5902 44.73 40.4902 45 40.2702 45.14C40.2202 45.16 40.1702 45.19 40.1202 45.2L40.1202 48.81L43.2302 47C43.1802 46.86 43.1902 46.71 43.2702 46.56ZM43.6302 46.77L43.6302 46.3C43.4902 46.33 43.3602 46.42 43.2702 46.56C43.1902 46.71 43.1802 46.86 43.2302 47L43.6302 46.77ZM40.1202 44.14L40.1202 42.46C40.0802 42.46 40.0402 42.47 40.0002 42.47C39.9602 42.47 39.9302 42.46 39.8902 42.46L39.8902 44.14C39.9702 44.12 40.0402 44.12 40.1202 44.14ZM40.1202 44.47L40.4102 44.31C40.3302 44.22 40.2302 44.16 40.1202 44.14L40.1202 44.47ZM40.4702 44.4C40.4902 44.43 40.5002 44.47 40.5102 44.5L43.6302 42.69L43.6302 42.43L40.4102 44.31C40.4302 44.33 40.4502 44.36 40.4702 44.4ZM40.1202 44.47L40.1202 44.73L40.5102 44.5C40.5002 44.47 40.4902 44.43 40.4702 44.4C40.4502 44.36 40.4302 44.33 40.4102 44.31L40.1202 44.47ZM56.9702 58.23L56.9702 58.7L57.3602 58.93C57.3802 58.88 57.3902 58.82 57.3902 58.76C57.3902 58.5 57.2102 58.28 56.9702 58.23ZM56.8502 58.22C56.8202 58.22 56.7802 58.23 56.7402 58.23L56.7402 58.57L56.9702 58.7L56.9702 58.23C56.9302 58.23 56.8902 58.22 56.8502 58.22ZM56.9702 51.7C56.8902 51.71 56.8202 51.71 56.7402 51.7L56.7402 58.23C56.7802 58.23 56.8202 58.22 56.8502 58.22C56.8902 58.22 56.9302 58.23 56.9702 58.23L56.9702 51.7ZM40.0002 68.53L40.0602 68.63L40.1202 68.59L40.1202 68.34L40.0002 68.4L40.0602 68.43L40.0002 68.53ZM40.0002 68.4L39.9502 68.43L40.0002 68.53L40.0602 68.43L40.0002 68.4ZM39.9502 68.63L39.8902 68.6L39.8902 69.06C39.9702 69.08 40.0402 69.08 40.1202 69.06L40.1202 68.59L40.0602 68.63L40.0002 68.53L39.9502 68.63ZM39.9502 68.43L40.0002 68.4L39.8902 68.34L39.8902 68.6L39.9502 68.63L40.0002 68.53L39.9502 68.43ZM33.9602 33.1L33.5602 33.34L33.5602 33.8C33.8002 33.75 33.9802 33.53 33.9802 33.27C33.9802 33.21 33.9802 33.16 33.9602 33.1ZM33.8502 32.91L33.3902 33.17L33.4502 33.27L33.5602 33.27L33.5602 33.34L33.9602 33.1C33.9402 33.03 33.9002 32.97 33.8502 32.91ZM39.6002 29.84C39.5702 29.81 39.5502 29.78 39.5302 29.75C39.5102 29.72 39.5002 29.68 39.4902 29.65L33.8502 32.91C33.9002 32.97 33.9402 33.03 33.9602 33.1L39.6002 29.84ZM33.4502 32.73C33.1502 32.73 32.9102 32.97 32.9102 33.27C32.9102 33.53 33.0902 33.75 33.3402 33.8L33.3402 33.27L33.4502 33.27L33.3902 33.17L33.8502 32.91C33.7502 32.8 33.6102 32.73 33.4502 32.73ZM46.1502 56.77L46.6102 57.04L46.5502 57.13L46.6602 57.13L46.6602 57.66C46.8102 57.63 46.9402 57.54 47.0202 57.4C47.1702 57.14 47.0802 56.82 46.8202 56.67C46.6002 56.53 46.3202 56.58 46.1502 56.77ZM59.8602 37.5C59.5602 36.98 58.9102 36.81 58.3902 37.11C57.9002 37.39 57.7102 37.98 57.9402 38.48L58.8702 37.95L58.9802 38.14L58.0502 38.68C58.3702 39.12 58.9802 39.26 59.4602 38.98C59.9702 38.68 60.1502 38.03 59.8602 37.5ZM57.9902 38.58C57.9702 38.55 57.9602 38.52 57.9402 38.48L57.2602 38.88C57.3102 38.94 57.3502 39 57.3702 39.07L58.0502 38.68C58.0302 38.65 58.0102 38.62 57.9902 38.58ZM58.9802 38.14L58.8702 37.95L57.9402 38.48C57.9602 38.52 57.9702 38.55 57.9902 38.58C58.0102 38.62 58.0302 38.65 58.0502 38.68L58.9802 38.14ZM49.7902 35.61L46.6602 37.42L46.6602 37.68L49.9002 35.8C49.8702 35.78 49.8502 35.74 49.8302 35.71C49.8102 35.68 49.8002 35.64 49.7902 35.61ZM49.9002 35.8L50.3002 35.57L50.2402 35.54L50.3002 35.45L50.2402 35.35L49.7902 35.61C49.8002 35.64 49.8102 35.68 49.8302 35.71C49.8502 35.74 49.8702 35.78 49.9002 35.8ZM56.9702 51.7C57.1102 51.67 57.2402 51.58 57.3202 51.44C57.4702 51.17 57.3802 50.85 57.1202 50.7C56.9002 50.57 56.6202 50.63 56.4502 50.81L56.9102 51.07L56.8502 51.17L56.9702 51.17L56.9702 51.7ZM56.9702 58.76L56.8502 58.76L56.9102 58.86L56.8502 58.89L57.2502 59.12C57.3002 59.07 57.3402 59 57.3602 58.93L56.9702 58.7L56.9702 58.76ZM56.7402 58.57L56.7402 58.7L56.8002 58.66L56.8502 58.76L56.9702 58.76L56.9702 58.7L56.7402 58.57ZM40.1202 28.15C40.6602 28.1 41.0802 27.64 41.0802 27.08C41.0802 26.48 40.6002 26 40.0002 26C39.4102 26 38.9302 26.48 38.9302 27.08C38.9302 27.64 39.3502 28.1 39.8902 28.15L39.8902 27.08L40.1202 27.08L40.1202 28.15ZM39.8902 27.08L39.8902 28.15C39.9302 28.16 39.9702 28.16 40.0002 28.16C40.0402 28.16 40.0802 28.16 40.1202 28.15L40.1202 27.08L39.8902 27.08ZM40.0002 28.16C39.9702 28.16 39.9302 28.16 39.8902 28.15L39.8902 28.95C39.9702 28.93 40.0402 28.93 40.1202 28.95L40.1202 28.15C40.0802 28.16 40.0402 28.16 40.0002 28.16ZM40.1202 29.41L40.5102 29.64C40.5502 29.5 40.5402 29.35 40.4602 29.21C40.3902 29.07 40.2602 28.98 40.1202 28.95L40.1202 29.41ZM39.8902 28.95L39.8902 29.41L39.9502 29.38L40.0002 29.48L40.0602 29.38L40.1202 29.41L40.1202 28.95C40.0402 28.93 39.9702 28.93 39.8902 28.95ZM39.8902 30.01L39.8902 39.77C39.9302 39.77 39.9602 39.77 40.0002 39.77C40.0402 39.77 40.0802 39.77 40.1202 39.77L40.1202 30.01C40.0402 30.02 39.9702 30.02 39.8902 30.01ZM40.1202 41.58L39.8902 41.58L39.8902 42.46C39.9302 42.46 39.9602 42.47 40.0002 42.47C40.0402 42.47 40.0802 42.46 40.1202 42.46L40.1202 41.12L39.8902 41.12L39.8902 41.58L40.1202 41.58L40.1202 39.77C40.0802 39.77 40.0402 39.77 40.0002 39.77C39.9602 39.77 39.9302 39.77 39.8902 39.77L39.8902 41.58L39.8902 41.58L39.8902 41.12L40.1202 41.12L40.1202 42.46C40.8002 42.4 41.3402 41.82 41.3402 41.12C41.3402 40.41 40.8002 39.84 40.1202 39.77L40.1202 41.58ZM43.7402 39.24L43.6302 39.24L43.6302 39.77C43.6602 39.77 43.7002 39.78 43.7402 39.78C43.7802 39.78 43.8202 39.77 43.8502 39.77L43.8502 39.3L43.8002 39.34L43.7402 39.24ZM43.8502 39.3L43.8502 39.24L43.7402 39.24L43.8002 39.34L43.8502 39.3ZM43.6802 39.14L44.1402 38.88C44.0402 38.77 43.9002 38.7 43.7402 38.7C43.4402 38.7 43.2002 38.94 43.2002 39.24C43.2002 39.5 43.3902 39.72 43.6302 39.77L43.6302 39.24L43.7402 39.24L43.6802 39.14ZM43.8502 39.24L43.8502 39.3L44.2502 39.07C44.2302 39 44.1902 38.93 44.1402 38.88L43.6802 39.14L43.7402 39.24L43.8502 39.24ZM56.3202 46.83C56.3202 46.89 56.3302 46.95 56.3402 47L56.7402 46.77L56.7402 46.31C56.5002 46.36 56.3202 46.57 56.3202 46.83ZM56.7402 39.77C56.6902 39.76 56.6402 39.74 56.5902 39.71C56.5402 39.68 56.4902 39.64 56.4602 39.6L48.0202 44.48C48.3202 45.11 48.0902 45.87 47.4802 46.22C46.8702 46.58 46.0902 46.4 45.7002 45.83L44.2502 46.67C44.2902 46.77 44.2902 46.89 44.2502 47L47.4802 48.87L49.7802 47.54C49.7002 47.3 49.8002 47.04 50.0302 46.91C50.2902 46.75 50.6202 46.84 50.7602 47.1C50.8402 47.24 50.8602 47.4 50.8102 47.54L53.1102 48.87L56.3402 47C56.3302 46.95 56.3202 46.89 56.3202 46.83C56.3202 46.57 56.5002 46.36 56.7402 46.31L56.7402 39.77ZM46.8602 45.16L48.0202 44.48C48.0102 44.45 47.9902 44.41 47.9702 44.38C47.9502 44.35 47.9302 44.32 47.9102 44.29L46.3502 45.19L46.3602 45.19L46.7502 44.97L46.8602 45.16ZM46.3602 45.19L46.4702 45.38L46.8602 45.16L46.7502 44.97L46.3602 45.19ZM46.8602 45.16L45.7002 45.83C46.0902 46.4 46.8702 46.58 47.4802 46.22C48.0902 45.87 48.3202 45.11 48.0202 44.48L46.8602 45.16L46.8602 45.16ZM46.4702 45.38L46.3602 45.19L45.5902 45.64C45.6102 45.67 45.6202 45.7 45.6402 45.73C45.6602 45.76 45.6802 45.8 45.7002 45.83L46.8602 45.16L46.8602 45.16L46.4702 45.38ZM20.5402 38.98C21.0302 39.26 21.6302 39.12 21.9502 38.68L21.0202 38.14L21.1302 37.95L22.0602 38.48C22.2802 37.99 22.1002 37.39 21.6102 37.11C21.1002 36.81 20.4402 36.98 20.1402 37.5C19.8502 38.02 20.0202 38.68 20.5402 38.98ZM36.3702 39.77C36.5102 39.74 36.6402 39.65 36.7302 39.51C36.8802 39.25 36.7902 38.92 36.5302 38.77C36.3002 38.64 36.0202 38.69 35.8602 38.88L36.3202 39.14L36.2602 39.24L36.3702 39.24L36.3702 39.77ZM36.2602 39.24L36.2002 39.34L36.1502 39.3L36.1502 39.77C36.2202 39.79 36.3002 39.79 36.3702 39.77L36.3702 39.24L36.2602 39.24ZM36.3702 46.31C36.6102 46.36 36.8002 46.57 36.8002 46.83C36.8002 46.89 36.7902 46.95 36.7702 47L39.8902 48.81L39.8902 45.2C39.7502 45.17 39.6202 45.08 39.5402 44.94C39.4602 44.8 39.4502 44.64 39.4902 44.5L36.3702 42.69L36.3702 46.31ZM36.1502 42.56L36.1502 46.31C36.1802 46.3 36.2202 46.29 36.2602 46.29C36.3002 46.29 36.3402 46.3 36.3702 46.31L36.3702 42.69L36.1502 42.56ZM36.3702 46.77L36.7702 47C36.7902 46.95 36.8002 46.89 36.8002 46.83C36.8002 46.57 36.6102 46.36 36.3702 46.31L36.3702 46.77ZM36.2602 46.29C36.2202 46.29 36.1802 46.3 36.1502 46.31L36.1502 46.64L36.3702 46.77L36.3702 46.31C36.3402 46.3 36.3002 46.29 36.2602 46.29ZM36.1502 46.64L36.1502 46.77L36.2002 46.74L36.2602 46.83L36.3702 46.83L36.3702 46.77L36.1502 46.64ZM56.7402 58.7L56.7402 58.76L56.8502 58.76L56.8002 58.66L56.7402 58.7ZM56.7402 58.76L56.7402 58.7L56.6302 58.76L56.8502 58.89L56.9102 58.86L56.8502 58.76L56.7402 58.76ZM46.1502 65.09C46.2502 65.2 46.3902 65.27 46.5502 65.27C46.8502 65.27 47.0902 65.03 47.0902 64.73C47.0902 64.47 46.9102 64.25 46.6602 64.2L46.6602 64.73L46.5502 64.73L46.6102 64.83L46.1502 65.09ZM46.5502 64.73L46.4402 64.73L46.4402 64.66L46.0402 64.9C46.0702 64.97 46.1002 65.03 46.1502 65.09L46.6102 64.83L46.5502 64.73ZM40.1202 68.59L40.1202 69.06C40.1702 69.05 40.2202 69.03 40.2702 69C40.4902 68.87 40.5902 68.6 40.5102 68.36L40.1202 68.59ZM40.5102 53.51L43.6302 55.31L43.6302 51.69C43.3902 51.64 43.2002 51.43 43.2002 51.17C43.2002 51.11 43.2102 51.05 43.2302 51L40.1202 49.19L40.1202 52.81C40.2602 52.84 40.3902 52.93 40.4602 53.07C40.5402 53.21 40.5502 53.37 40.5102 53.51ZM40.1202 52.81L40.1202 53.28L40.5102 53.51C40.5502 53.37 40.5402 53.21 40.4602 53.07C40.3902 52.93 40.2602 52.84 40.1202 52.81ZM40.4002 53.7L43.6302 55.57L43.6302 55.31L40.5102 53.51C40.4902 53.58 40.4502 53.64 40.4002 53.7ZM40.1202 53.28L40.1202 53.53L40.4002 53.7C40.4502 53.64 40.4902 53.58 40.5102 53.51L40.1202 53.28ZM40.1202 53.53L40.1202 53.87C40.1702 53.86 40.2202 53.84 40.2602 53.81C40.3202 53.78 40.3602 53.74 40.4002 53.7L40.1202 53.53ZM36.1502 39.3L35.7502 39.07C35.6702 39.31 35.7602 39.57 35.9902 39.71C36.0402 39.74 36.1002 39.76 36.1502 39.77L36.1502 39.3ZM40.0002 53.34L39.9502 53.24L39.8902 53.28L39.8902 53.53L40.0002 53.47L39.9502 53.44L40.0002 53.34ZM40.0002 53.47L40.0602 53.44L40.0002 53.34L39.9502 53.44L40.0002 53.47ZM40.0602 53.24L40.1202 53.28L40.1202 52.81C40.0402 52.8 39.9702 52.79 39.8902 52.81L39.8902 53.28L39.9502 53.24L40.0002 53.34L40.0602 53.24ZM40.0602 53.44L40.0002 53.47L40.1202 53.53L40.1202 53.28L40.0602 53.24L40.0002 53.34L40.0602 53.44ZM46.5502 64.19C46.5102 64.19 46.4802 64.19 46.4402 64.2L46.4402 64.66L46.5002 64.63L46.5502 64.73L46.6602 64.73L46.6602 64.2C46.6302 64.19 46.5902 64.19 46.5502 64.19ZM46.6602 60.58L46.4402 60.46L46.4402 64.2C46.4802 64.19 46.5102 64.19 46.5502 64.19C46.5902 64.19 46.6302 64.19 46.6602 64.2L46.6602 60.58ZM39.8902 55.54L39.8902 56.42L40.1202 56.42L40.1202 58.23C40.8102 58.17 41.3502 57.59 41.3502 56.88C41.3502 56.18 40.8102 55.6 40.1202 55.54L40.1202 56.88L39.8902 56.88L39.8902 56.42L39.8902 58.23C39.9302 58.23 39.9702 58.23 40.0002 58.23C40.0402 58.23 40.0802 58.23 40.1202 58.23L40.1202 56.42L39.8902 56.42L39.8902 56.88L40.1202 56.88L40.1202 55.54C40.0802 55.54 40.0402 55.53 40.0002 55.53C39.9702 55.53 39.9302 55.54 39.8902 55.54ZM40.1202 55.54L40.1202 53.87C40.0402 53.89 39.9702 53.89 39.8902 53.87L39.8902 55.54C39.9302 55.54 39.9702 55.53 40.0002 55.53C40.0402 55.53 40.0802 55.54 40.1202 55.54ZM38.6602 56.88C38.6602 57.59 39.2002 58.17 39.8902 58.23L39.8902 56.42L39.8902 55.54C39.2002 55.6 38.6602 56.18 38.6602 56.88ZM35.8602 38.88L33.5602 37.55L33.5602 37.81L35.7502 39.07C35.7602 39.04 35.7802 39 35.7902 38.97C35.8102 38.94 35.8302 38.91 35.8602 38.88ZM35.7502 39.07L36.1502 39.3L36.1502 39.24L36.2602 39.24L36.3202 39.14L35.8602 38.88C35.8302 38.91 35.8102 38.94 35.7902 38.97C35.7802 39 35.7602 39.04 35.7502 39.07ZM22.6102 51.17C22.6102 51.43 22.7902 51.64 23.0302 51.69L23.0302 51.17L23.1502 51.17L23.0902 51.07L23.5502 50.81C23.4502 50.7 23.3002 50.63 23.1502 50.63C22.8502 50.63 22.6102 50.87 22.6102 51.17ZM43.8502 46.3L43.8502 46.64L44.1402 46.48C44.1002 46.43 44.0602 46.4 44.0102 46.37C43.9602 46.34 43.9002 46.32 43.8502 46.3ZM44.2502 46.67L45.7002 45.83C45.6802 45.8 45.6602 45.76 45.6402 45.73C45.6202 45.7 45.6102 45.67 45.5902 45.64L44.1402 46.48C44.1902 46.53 44.2302 46.6 44.2502 46.67ZM43.8502 46.64L43.8502 46.77L43.9702 46.84L44.2502 46.67C44.2302 46.6 44.1902 46.53 44.1402 46.48L43.8502 46.64ZM43.9702 46.84L44.2502 47C44.2902 46.89 44.2902 46.77 44.2502 46.67L43.9702 46.84ZM44.2102 47.1C44.1902 47.14 44.1702 47.17 44.1402 47.2L47.2602 49L47.4802 48.87L44.2502 47C44.2402 47.04 44.2302 47.07 44.2102 47.1ZM43.9702 46.84L43.7402 46.96L44.1402 47.2C44.1702 47.17 44.1902 47.14 44.2102 47.1C44.2302 47.07 44.2402 47.04 44.2502 47L43.9702 46.84ZM33.3402 64.2C33.1902 64.23 33.0602 64.32 32.9802 64.46C32.8302 64.72 32.9202 65.04 33.1802 65.2C33.4002 65.33 33.6802 65.28 33.8502 65.09L33.3902 64.83L33.4502 64.73L33.3402 64.73L33.3402 64.2ZM33.4502 64.73L33.5002 64.63L33.5602 64.66L33.5602 64.2C33.4802 64.18 33.4102 64.18 33.3402 64.2L33.3402 64.73L33.4502 64.73ZM33.5602 64.2L33.5602 60.46L33.3402 60.58L33.3402 64.2C33.4102 64.18 33.4802 64.18 33.5602 64.2ZM33.5602 60.46L33.5602 60.2L33.3402 60.33L33.3402 60.58L33.5602 60.46ZM33.3402 57.66C33.0902 57.61 32.9102 57.39 32.9102 57.13C32.9102 56.84 33.1502 56.59 33.4502 56.59C33.6102 56.59 33.7502 56.66 33.8502 56.77L36.1502 55.44L36.1502 51.7C36.1002 51.68 36.0402 51.66 35.9902 51.63C35.9402 51.6 35.9002 51.57 35.8602 51.53L34.4102 52.37C34.7102 53 34.4802 53.76 33.8702 54.11C33.2502 54.47 32.4802 54.29 32.0902 53.71L23.6602 58.6C23.6602 58.61 23.6602 58.61 23.6602 58.62C23.6902 58.73 23.6902 58.83 23.6602 58.93L29.3002 62.2C29.3402 62.16 29.3802 62.12 29.4302 62.1C29.6602 61.96 29.9402 62.01 30.1002 62.2L33.3402 60.33L33.3402 57.66ZM33.3402 57.13L33.4502 57.13L33.3902 57.04L33.8502 56.77C33.7502 56.66 33.6102 56.59 33.4502 56.59C33.1502 56.59 32.9102 56.84 32.9102 57.13C32.9102 57.39 33.0902 57.61 33.3402 57.66L33.3402 57.13ZM39.8902 29.67L39.6002 29.84C39.6802 29.93 39.7802 29.99 39.8902 30.01L39.8902 29.67ZM39.8902 29.67L39.8902 29.41L39.4902 29.65C39.5002 29.68 39.5102 29.72 39.5302 29.75C39.5502 29.78 39.5702 29.81 39.6002 29.84L39.8902 29.67ZM50.6902 50.27L50.3002 50.5L50.3502 50.53L50.3002 50.63L50.3502 50.72L50.8102 50.46C50.8002 50.43 50.7802 50.4 50.7602 50.37C50.7402 50.33 50.7202 50.3 50.6902 50.27ZM50.3502 50.72L50.3002 50.63L50.2402 50.72L49.7902 50.46C49.7402 50.6 49.7502 50.76 49.8302 50.91C49.9702 51.17 50.3102 51.26 50.5702 51.1C50.7902 50.97 50.8902 50.7 50.8102 50.46L50.3502 50.72ZM46.6602 33.27L46.6602 33.8C46.8102 33.77 46.9402 33.68 47.0202 33.54C47.1702 33.28 47.0802 32.96 46.8202 32.8C46.6002 32.68 46.3202 32.72 46.1502 32.91L46.6102 33.17L46.5502 33.27L46.6602 33.27ZM40.1202 44.73L40.1202 45.2C40.1702 45.19 40.2202 45.16 40.2702 45.14C40.4902 45 40.5902 44.73 40.5102 44.5L40.1202 44.73ZM50.7002 62.2L50.3002 62.43L50.3502 62.47L50.3002 62.56L50.3502 62.66L50.8102 62.39C50.8002 62.36 50.7802 62.33 50.7602 62.29C50.7402 62.26 50.7202 62.23 50.7002 62.2ZM50.3502 62.66L50.3002 62.56L50.2402 62.66L49.7802 62.39C49.7402 62.53 49.7502 62.69 49.8302 62.83C49.9702 63.09 50.3102 63.18 50.5702 63.03C50.7902 62.9 50.8902 62.63 50.8102 62.39L50.3502 62.66ZM39.8902 45.2L39.8902 48.81L40.0002 48.87L40.1202 48.81L40.1202 45.2C40.0402 45.21 39.9702 45.21 39.8902 45.2ZM40.1202 44.73L40.0602 44.76L40.0002 44.67L39.9502 44.76L39.8902 44.73L39.8902 45.2C39.9702 45.21 40.0402 45.21 40.1202 45.2L40.1202 44.73ZM39.8902 44.73L39.4902 44.5C39.4502 44.64 39.4602 44.8 39.5402 44.94C39.6202 45.08 39.7502 45.17 39.8902 45.2L39.8902 44.73ZM23.2602 51.23L23.6602 51C23.6302 50.93 23.6002 50.86 23.5502 50.81L23.0902 51.07L23.1502 51.17L23.2602 51.17L23.2602 51.23ZM23.1502 51.17L23.2002 51.26L23.2602 51.23L23.2602 51.17L23.1502 51.17ZM23.2602 51.69C23.5002 51.64 23.6802 51.43 23.6802 51.17C23.6802 51.11 23.6702 51.05 23.6602 51L23.2602 51.23L23.2602 51.69ZM23.2002 51.26L23.1502 51.17L23.0302 51.17L23.0302 51.69C23.0702 51.7 23.1102 51.71 23.1502 51.71C23.1802 51.71 23.2202 51.7 23.2602 51.69L23.2602 51.23L23.2002 51.26ZM23.1502 51.71C23.1102 51.71 23.0702 51.7 23.0302 51.69L23.0302 58.23C23.1102 58.22 23.1902 58.22 23.2602 58.23L23.2602 51.69C23.2202 51.7 23.1802 51.71 23.1502 51.71ZM23.2602 58.57L23.5502 58.4C23.4702 58.32 23.3702 58.26 23.2602 58.23L23.2602 58.57ZM23.0302 58.23L23.0302 58.7L23.2602 58.57L23.2602 58.23C23.1902 58.22 23.1102 58.22 23.0302 58.23ZM23.2602 58.7L23.3702 58.76L23.6602 58.6C23.6302 58.52 23.6002 58.46 23.5502 58.4L23.2602 58.57L23.2602 58.7ZM23.0302 58.7L23.0302 58.76L23.1502 58.76L23.2002 58.66L23.2602 58.7L23.2602 58.57L23.0302 58.7ZM23.2002 58.66L23.1502 58.76L23.2602 58.76L23.2602 58.7L23.2002 58.66ZM36.2602 46.83L36.2002 46.74L36.1502 46.77L36.1502 46.83L36.2602 46.83ZM36.1502 46.64L35.8602 46.47C35.8102 46.53 35.7702 46.6 35.7502 46.67L36.0402 46.83L36.1502 46.77L36.1502 46.64ZM36.1502 46.31C36.0402 46.33 35.9302 46.39 35.8602 46.47L36.1502 46.64L36.1502 46.31ZM36.1502 42.56L33.8502 41.23C33.6802 41.42 33.4002 41.47 33.1802 41.33C32.9202 41.18 32.8302 40.86 32.9802 40.6C33.0602 40.46 33.1902 40.37 33.3402 40.34L33.3402 37.68L30.1002 35.8C30.0602 35.84 30.0202 35.88 29.9702 35.9C29.7502 36.04 29.4702 35.99 29.3102 35.8L23.6602 39.07C23.6702 39.12 23.6802 39.18 23.6802 39.24C23.6802 39.3 23.6702 39.36 23.6602 39.41L32.0902 44.29C32.2702 44.04 32.5302 43.85 32.8502 43.76C33.5702 43.57 34.3002 43.99 34.4902 44.71C34.5802 45.03 34.5402 45.36 34.4102 45.64L35.8602 46.47C35.9302 46.39 36.0402 46.33 36.1502 46.31L36.1502 42.56ZM36.2002 39.34L36.2602 39.24L36.1502 39.24L36.1502 39.3L36.2002 39.34ZM43.7402 58.76L43.6302 58.76L43.6302 58.24C43.4902 58.27 43.3602 58.36 43.2702 58.5C43.1202 58.76 43.2102 59.08 43.4702 59.24C43.7002 59.36 43.9802 59.32 44.1502 59.12L43.6802 58.86L43.7402 58.76ZM44.1502 59.12C44.1702 59.1 44.1902 59.07 44.2102 59.04C44.2302 59 44.2402 58.97 44.2502 58.93L43.8502 58.7L43.8502 58.76L43.7402 58.76L43.6802 58.86L44.1502 59.12ZM43.8002 58.66L43.8502 58.7L43.8502 58.24C43.7802 58.22 43.7002 58.22 43.6302 58.24L43.6302 58.76L43.7402 58.76L43.8002 58.66ZM43.8502 58.76L43.8502 58.7L43.8002 58.66L43.7402 58.76L43.8502 58.76ZM34.3002 45.83L33.1402 45.16L33.1402 45.16L31.9802 44.49C31.8502 44.76 31.8102 45.09 31.9002 45.41C32.0902 46.13 32.8302 46.56 33.5402 46.37C33.8602 46.28 34.1302 46.08 34.3002 45.83ZM31.9002 45.41C31.8102 45.09 31.8502 44.76 31.9802 44.49L23.5402 39.6C23.4702 39.68 23.3702 39.74 23.2602 39.77L23.2602 46.3C23.3102 46.32 23.3602 46.34 23.4102 46.37C23.6402 46.5 23.7402 46.76 23.6602 47L26.8902 48.87L29.1902 47.54C29.1102 47.3 29.2102 47.04 29.4302 46.91C29.6902 46.75 30.0302 46.84 30.1702 47.1C30.2502 47.24 30.2602 47.4 30.2202 47.54L32.5202 48.87L35.7502 47C35.7302 46.95 35.7202 46.89 35.7202 46.83C35.7202 46.78 35.7302 46.72 35.7502 46.67L34.3002 45.83C34.1302 46.08 33.8602 46.28 33.5402 46.37C32.8302 46.56 32.0902 46.13 31.9002 45.41ZM34.4102 45.64L33.6402 45.19L33.5302 45.38L33.1402 45.16L33.1402 45.16L34.3002 45.83C34.3402 45.77 34.3802 45.7 34.4102 45.64ZM35.7502 46.67C35.7702 46.6 35.8102 46.53 35.8602 46.47L34.4102 45.64C34.3802 45.7 34.3402 45.77 34.3002 45.83L35.7502 46.67ZM34.4902 44.71C34.3002 43.99 33.5702 43.57 32.8502 43.76C32.5302 43.85 32.2702 44.04 32.0902 44.29L33.6502 45.19L33.6402 45.19L34.4102 45.64C34.5402 45.36 34.5802 45.03 34.4902 44.71ZM43.8502 39.77C44.0902 39.72 44.2802 39.5 44.2802 39.24C44.2802 39.18 44.2702 39.12 44.2502 39.07L43.8502 39.3L43.8502 39.77ZM43.8502 42.31L46.0402 41.03C46.0202 40.98 46.0202 40.92 46.0202 40.87C46.0202 40.61 46.2002 40.39 46.4402 40.34L46.4402 37.8L44.2502 39.07C44.2702 39.12 44.2802 39.18 44.2802 39.24C44.2802 39.5 44.0902 39.72 43.8502 39.77L43.8502 42.31ZM43.7402 39.78C43.7002 39.78 43.6602 39.77 43.6302 39.77L43.6302 42.43L43.8502 42.31L43.8502 39.77C43.8202 39.77 43.7802 39.78 43.7402 39.78ZM43.8502 42.56L46.1502 41.23C46.1002 41.17 46.0702 41.11 46.0402 41.03L43.8502 42.31L43.8502 42.56ZM43.6302 42.43L43.6302 42.69L43.8502 42.56L43.8502 42.31L43.6302 42.43ZM43.6302 42.69L43.6302 46.3C43.7002 46.29 43.7802 46.29 43.8502 46.3L43.8502 42.56L43.6302 42.69ZM43.6302 46.3L43.6302 46.77L43.8502 46.64L43.8502 46.3C43.7802 46.29 43.7002 46.29 43.6302 46.3ZM46.4402 40.34C46.2002 40.39 46.0202 40.61 46.0202 40.87C46.0202 40.92 46.0202 40.98 46.0402 41.03L46.4402 40.8L46.4402 40.34ZM46.4402 37.55L44.1402 38.88C44.1902 38.93 44.2302 39 44.2502 39.07L46.4402 37.8L46.4402 37.55ZM46.6602 37.68L46.6602 37.42L46.4402 37.55L46.4402 37.8L46.6602 37.68ZM46.6602 37.42L46.6602 33.8C46.5902 33.82 46.5202 33.82 46.4402 33.8L46.4402 37.55L46.6602 37.42ZM44.2502 51L47.4902 49.13L47.2602 49L44.1402 50.81C44.1902 50.86 44.2302 50.93 44.2502 51ZM47.4902 49.13L47.7102 49L47.4802 48.87L47.2602 49L47.4902 49.13ZM47.7102 49L49.9002 47.73C49.8702 47.71 49.8502 47.68 49.8302 47.64C49.8102 47.61 49.8002 47.58 49.7802 47.54L47.4802 48.87L47.7102 49ZM50.2402 47.28L50.3002 47.37L50.3502 47.28L50.8102 47.54C50.8602 47.4 50.8402 47.24 50.7602 47.1C50.6202 46.84 50.2902 46.75 50.0302 46.91C49.8002 47.04 49.7002 47.3 49.7802 47.54L50.2402 47.28ZM21.1302 37.95L21.0202 38.14L21.9502 38.68C21.9702 38.65 21.9902 38.62 22.0102 38.58C22.0302 38.55 22.0402 38.52 22.0602 38.48L21.1302 37.95ZM33.8502 56.77L33.3902 57.04L33.4502 57.13L33.5602 57.13L33.5602 57.2L33.9602 56.97C33.9402 56.89 33.9002 56.83 33.8502 56.77ZM36.1502 55.7L36.1502 55.44L33.8502 56.77C33.9002 56.83 33.9402 56.89 33.9602 56.97L36.1502 55.7ZM56.4502 58.4L56.7402 58.57L56.7402 58.23C56.6302 58.26 56.5302 58.32 56.4502 58.4ZM56.3402 58.6L56.6302 58.76L56.7402 58.7L56.7402 58.57L56.4502 58.4C56.4002 58.46 56.3702 58.53 56.3402 58.6ZM33.5602 33.8L33.5602 33.34L33.5002 33.37L33.4502 33.27L33.3402 33.27L33.3402 33.8C33.3702 33.81 33.4102 33.81 33.4502 33.81C33.4902 33.81 33.5202 33.81 33.5602 33.8ZM33.3402 33.8L33.3402 37.42L33.5602 37.55L33.5602 33.8C33.5202 33.81 33.4902 33.81 33.4502 33.81C33.4102 33.81 33.3702 33.81 33.3402 33.8ZM29.7002 35.45L29.6502 35.35L29.1902 35.61C29.2002 35.65 29.2202 35.68 29.2402 35.71C29.2602 35.74 29.2802 35.78 29.3102 35.8L29.7002 35.57L29.6502 35.54L29.7002 35.45ZM29.7002 35.57L29.7602 35.54L29.7002 35.45L29.6502 35.54L29.7002 35.57ZM29.7602 35.35L30.2102 35.61C30.2602 35.47 30.2502 35.31 30.1702 35.17C30.0302 34.91 29.6902 34.82 29.4302 34.97C29.2102 35.1 29.1102 35.38 29.1902 35.61L29.6502 35.35L29.7002 35.45L29.7602 35.35ZM29.7602 35.54L29.7002 35.57L30.1002 35.8C30.1502 35.75 30.1902 35.68 30.2102 35.61L29.7602 35.35L29.7002 35.45L29.7602 35.54ZM58.8702 60.06L57.9402 59.52C57.7202 60.02 57.9002 60.62 58.3902 60.9C58.9002 61.2 59.5602 61.02 59.8602 60.5C60.1502 59.99 59.9802 59.33 59.4602 59.03C58.9702 58.74 58.3702 58.88 58.0502 59.33L58.9802 59.87L58.8702 60.06ZM58.0502 59.33C58.0302 59.36 58.0102 59.39 57.9902 59.43C57.9702 59.46 57.9602 59.49 57.9402 59.52L58.8702 60.06L58.9802 59.87L58.0502 59.33ZM50.6902 35.8L50.3002 35.57L49.9002 35.8C50.0602 35.99 50.3402 36.04 50.5702 35.9C50.6202 35.88 50.6602 35.84 50.6902 35.8ZM40.1202 49L40.1202 48.94L40.0602 48.9L40.0002 49L40.1202 49ZM40.0002 49L40.0002 49L40.0602 49.1L40.1202 49.06L40.1202 49L40.0002 49ZM40.0002 49L40.0002 49L40.0002 49L40.0002 49ZM40.0602 48.9L40.0002 48.87L39.9502 48.9L40.0002 49L40.0002 49L40.0602 48.9ZM39.8902 49L39.8902 49.06L39.9502 49.1L40.0002 49L40.0002 49L39.8902 49ZM39.9502 48.9L39.8902 48.94L39.8902 49L40.0002 49L39.9502 48.9ZM39.8902 48.94L39.7802 49L39.8902 49.06L39.8902 49L39.8902 48.94ZM23.0302 39.77L23.0302 46.3C23.1102 46.29 23.1802 46.29 23.2602 46.3L23.2602 39.77C23.2202 39.77 23.1802 39.78 23.1502 39.78C23.1102 39.78 23.0702 39.77 23.0302 39.77ZM23.2602 39.77L23.2602 39.43L23.0302 39.31L23.0302 39.77C23.0702 39.77 23.1102 39.78 23.1502 39.78C23.1802 39.78 23.2202 39.77 23.2602 39.77ZM46.0402 56.97L43.8502 55.7L43.8502 58.24C43.9002 58.25 43.9602 58.27 44.0102 58.3C44.2302 58.43 44.3302 58.69 44.2502 58.93L46.4402 60.2L46.4402 57.66C46.3902 57.65 46.3402 57.63 46.2802 57.6C46.0602 57.47 45.9602 57.2 46.0402 56.97ZM46.4402 57.66L46.4402 57.2L46.0402 56.97C45.9602 57.2 46.0602 57.47 46.2802 57.6C46.3402 57.63 46.3902 57.65 46.4402 57.66ZM46.0902 56.86C46.1102 56.83 46.1302 56.8 46.1502 56.77L43.8502 55.44L43.8502 55.7L46.0402 56.97C46.0502 56.93 46.0702 56.9 46.0902 56.86ZM46.4402 57.2L46.4402 57.13L46.5502 57.13L46.6102 57.04L46.1502 56.77C46.1302 56.8 46.1102 56.83 46.0902 56.86C46.0702 56.9 46.0502 56.93 46.0402 56.97L46.4402 57.2ZM29.7002 47.37L29.7602 47.28L30.2202 47.54C30.2602 47.4 30.2502 47.24 30.1702 47.1C30.0302 46.84 29.6902 46.75 29.4302 46.91C29.2102 47.04 29.1102 47.3 29.1902 47.54L29.6502 47.28L29.7002 47.37ZM33.5002 33.37L33.5602 33.34L33.5602 33.27L33.4502 33.27L33.5002 33.37ZM39.8902 49.06L39.8902 49.19L40.0002 49.13L39.9502 49.1L39.8902 49.06ZM40.0002 49.13L40.0602 49.1L40.0002 49L39.9502 49.1L40.0002 49.13ZM39.7802 49L36.6602 50.81C36.7102 50.86 36.7502 50.93 36.7702 51L39.8902 49.19L39.8902 49.06L39.7802 49ZM39.8902 48.94L39.8902 48.81L36.7702 47C36.7502 47.07 36.7102 47.14 36.6602 47.19L39.7802 49L39.8902 48.94ZM35.7502 46.67C35.7302 46.72 35.7202 46.78 35.7202 46.83C35.7202 46.89 35.7302 46.95 35.7502 47L36.0402 46.83L35.7502 46.67ZM29.7002 50.5L29.3102 50.27C29.2502 50.32 29.2202 50.39 29.1902 50.46L29.6502 50.72L29.7002 50.63L29.6502 50.53L29.7002 50.5ZM29.7002 50.63L29.7602 50.53L29.7002 50.5L29.6502 50.53L29.7002 50.63ZM43.7402 51.17L43.8002 51.26L43.8502 51.23L43.8502 51.17L43.7402 51.17ZM43.8002 51.26L43.7402 51.17L43.6302 51.17L43.6302 51.23L43.8502 51.36L43.8502 51.23L43.8002 51.26ZM43.8502 51.69C43.9602 51.67 44.0602 51.61 44.1402 51.53L43.8502 51.36L43.8502 51.69ZM43.6302 51.23L43.6302 51.69C43.6602 51.7 43.7002 51.71 43.7402 51.71C43.7802 51.71 43.8202 51.7 43.8502 51.69L43.8502 51.36L43.6302 51.23ZM43.7402 51.71C43.7002 51.71 43.6602 51.7 43.6302 51.69L43.6302 55.31L43.8502 55.44L43.8502 51.69C43.8202 51.7 43.7802 51.71 43.7402 51.71ZM43.6302 55.31L43.6302 55.57L43.8502 55.7L43.8502 55.44L43.6302 55.31ZM43.6302 55.57L43.6302 58.24C43.7002 58.22 43.7802 58.22 43.8502 58.24L43.8502 55.7L43.6302 55.57ZM43.8502 58.7L44.2502 58.93C44.3302 58.69 44.2302 58.43 44.0102 58.3C43.9602 58.27 43.9002 58.25 43.8502 58.24L43.8502 58.7ZM39.8902 52.81L39.8902 49.19L36.7702 51C36.8202 51.14 36.8102 51.3 36.7302 51.44C36.6402 51.58 36.5102 51.67 36.3702 51.7L36.3702 55.31L39.4902 53.51C39.4102 53.27 39.5102 53 39.7302 52.87C39.7802 52.84 39.8402 52.82 39.8902 52.81ZM39.4902 53.51L39.8902 53.28L39.8902 52.81C39.8402 52.82 39.7802 52.84 39.7302 52.87C39.5102 53 39.4102 53.27 39.4902 53.51ZM40.1202 52.81L40.1202 49.19L40.0002 49.13L39.8902 49.19L39.8902 52.81C39.9702 52.79 40.0402 52.8 40.1202 52.81ZM23.3702 39.24L23.6602 39.07C23.6302 39 23.5902 38.93 23.5502 38.88L23.1402 39.11L23.3702 39.24ZM23.0902 39.14L23.1502 39.24L23.2602 39.24L23.2602 39.3L23.3702 39.24L23.1402 39.11L23.0902 39.14ZM23.6602 39.41C23.6702 39.36 23.6802 39.3 23.6802 39.24C23.6802 39.18 23.6702 39.12 23.6602 39.07L23.3702 39.24L23.6602 39.41ZM23.2602 39.3L23.2602 39.43L23.5402 39.6C23.5902 39.55 23.6302 39.48 23.6602 39.41L23.3702 39.24L23.2602 39.3ZM23.5402 39.6L31.9802 44.49C32.0102 44.42 32.0502 44.35 32.0902 44.29L23.6602 39.41C23.6302 39.48 23.5902 39.55 23.5402 39.6ZM31.9802 44.49L33.1402 45.16L33.2502 44.97L33.6402 45.19L33.6502 45.19L32.0902 44.29C32.0502 44.35 32.0102 44.42 31.9802 44.49ZM48.0202 44.48L56.4602 39.6C56.4002 39.54 56.3702 39.48 56.3402 39.41L47.9102 44.29C47.9302 44.32 47.9502 44.35 47.9702 44.38C47.9902 44.41 48.0102 44.45 48.0202 44.48ZM40.0002 48.87L39.8902 48.81L39.8902 48.94L39.9502 48.9L40.0002 48.87ZM46.3602 45.19L46.3502 45.19L47.9102 44.29C47.5202 43.71 46.7502 43.53 46.1302 43.89C45.5202 44.25 45.2802 45.01 45.5902 45.64L46.3602 45.19ZM39.4902 53.51L36.3702 55.31L36.3702 55.57L39.6002 53.71C39.5702 53.68 39.5502 53.65 39.5302 53.61C39.5102 53.58 39.5002 53.55 39.4902 53.51ZM39.6002 53.71L39.8902 53.53L39.8902 53.28L39.4902 53.51C39.5002 53.55 39.5102 53.58 39.5302 53.61C39.5502 53.65 39.5702 53.68 39.6002 53.71ZM40.0002 49.13L40.1202 49.19L40.1202 49.06L40.0602 49.1L40.0002 49.13ZM36.3702 51.23L36.3702 51.7C36.5102 51.67 36.6402 51.58 36.7302 51.44C36.8102 51.3 36.8202 51.14 36.7702 51L36.3702 51.23ZM36.1502 51.36L36.1502 51.7C36.2202 51.71 36.3002 51.71 36.3702 51.7L36.3702 51.23L36.1502 51.36ZM35.8602 51.53C35.9002 51.57 35.9402 51.6 35.9902 51.63C36.0402 51.66 36.1002 51.68 36.1502 51.7L36.1502 51.36L35.8602 51.53ZM35.7502 51.34L34.3002 52.18C34.3202 52.21 34.3402 52.24 34.3602 52.27C34.3802 52.3 34.4002 52.34 34.4102 52.37L35.8602 51.53C35.8102 51.47 35.7702 51.41 35.7502 51.34ZM33.2502 53.04L33.2502 53.04L32.0902 53.71C32.4802 54.29 33.2502 54.47 33.8702 54.11C34.4802 53.76 34.7102 53 34.4102 52.37L33.2502 53.04ZM34.3602 52.27C34.3402 52.24 34.3202 52.21 34.3002 52.18L33.5402 52.62L33.6502 52.81L33.2502 53.04L33.2502 53.04L34.4102 52.37C34.4002 52.34 34.3802 52.3 34.3602 52.27ZM33.6402 45.19L33.2502 44.97L33.1402 45.16L33.5302 45.38L33.6402 45.19ZM23.2602 39.43L23.2602 39.77C23.3702 39.74 23.4702 39.68 23.5402 39.6L23.2602 39.43ZM23.2602 39.3L23.2002 39.34L23.1502 39.24L23.0302 39.24L23.0302 39.31L23.2602 39.43L23.2602 39.3ZM33.4502 64.73L33.5602 64.73L33.5602 64.66L33.5002 64.63L33.4502 64.73ZM33.9602 64.9C34.0402 64.66 33.9402 64.39 33.7202 64.26C33.6702 64.23 33.6102 64.21 33.5602 64.2L33.5602 64.66L33.9602 64.9ZM33.5602 64.73L33.4502 64.73L33.3902 64.83L33.8502 65.09C33.8702 65.06 33.8902 65.03 33.9102 65C33.9302 64.97 33.9502 64.93 33.9602 64.9L33.5602 64.66L33.5602 64.73ZM33.9102 65C33.8902 65.03 33.8702 65.06 33.8502 65.09L39.4902 68.36C39.5102 68.29 39.5502 68.22 39.6002 68.17L33.9602 64.9C33.9502 64.93 33.9302 64.97 33.9102 65ZM39.4902 68.36L39.8902 68.6L39.8902 68.34L39.6002 68.17C39.5502 68.22 39.5102 68.29 39.4902 68.36ZM33.5602 57.2L33.5602 57.13L33.4502 57.13L33.5002 57.23L33.5602 57.2ZM33.3402 37.68L33.3402 40.34C33.4102 40.32 33.4802 40.32 33.5602 40.34L33.5602 37.81L33.3402 37.68ZM33.5602 37.55L33.3402 37.42L33.3402 37.68L33.5602 37.81L33.5602 37.55ZM33.3402 37.42L30.2102 35.61C30.1902 35.68 30.1502 35.75 30.1002 35.8L33.3402 37.68L33.3402 37.42ZM29.7002 35.57L29.3102 35.8C29.4702 35.99 29.7502 36.04 29.9702 35.9C30.0202 35.88 30.0602 35.84 30.1002 35.8L29.7002 35.57ZM32.0302 53.62C32.0102 53.59 32.0002 53.55 31.9802 53.52L23.5502 58.4C23.6002 58.46 23.6302 58.52 23.6602 58.6L32.0902 53.71C32.0702 53.68 32.0502 53.65 32.0302 53.62ZM33.2502 53.04L33.1402 52.85L33.5402 52.62L33.5402 52.62L31.9802 53.52C32.0002 53.55 32.0102 53.59 32.0302 53.62C32.0502 53.65 32.0702 53.68 32.0902 53.71L33.2502 53.04ZM23.2602 46.77L23.2602 46.3C23.1802 46.29 23.1102 46.29 23.0302 46.3L23.0302 46.83L23.1502 46.83L23.2002 46.74L23.2602 46.77ZM23.1502 46.83L23.2602 46.83L23.2602 46.77L23.2002 46.74L23.1502 46.83ZM23.6602 47C23.7402 46.76 23.6402 46.5 23.4102 46.37C23.3602 46.34 23.3102 46.32 23.2602 46.3L23.2602 46.77L23.6602 47ZM23.2602 46.83L23.1502 46.83L23.0902 46.93L23.5502 47.2C23.5702 47.17 23.5902 47.14 23.6102 47.1C23.6302 47.07 23.6502 47.04 23.6602 47L23.2602 46.77L23.2602 46.83ZM23.6102 47.1C23.5902 47.14 23.5702 47.17 23.5502 47.2L26.6702 49L26.8902 48.87L23.6602 47C23.6502 47.04 23.6302 47.07 23.6102 47.1ZM27.1102 49L29.3002 47.73C29.2802 47.71 29.2602 47.68 29.2402 47.64C29.2202 47.61 29.2002 47.58 29.1902 47.54L26.8902 48.87L27.1102 49ZM26.6702 49L26.8902 49.13L27.1102 49L26.8902 48.87L26.6702 49ZM26.8902 49.13L29.1902 50.46C29.2202 50.39 29.2502 50.32 29.3102 50.27L27.1102 49L26.8902 49.13ZM29.1902 35.61L23.5502 38.88C23.5902 38.93 23.6302 39 23.6602 39.07L29.3102 35.8C29.2802 35.78 29.2602 35.74 29.2402 35.71C29.2202 35.68 29.2002 35.65 29.1902 35.61ZM39.8902 42.46L39.8902 41.58L39.8902 41.58L39.8902 39.77C39.2002 39.83 38.6502 40.41 38.6502 41.12C38.6502 41.83 39.2002 42.41 39.8902 42.46ZM46.4402 64.66L46.4402 64.2C46.2002 64.25 46.0202 64.47 46.0202 64.73C46.0202 64.79 46.0202 64.84 46.0402 64.9L46.4402 64.66ZM46.4402 64.73L46.5502 64.73L46.5002 64.63L46.4402 64.66L46.4402 64.73ZM43.6302 51.23L43.2302 51C43.2102 51.05 43.2002 51.11 43.2002 51.17C43.2002 51.43 43.3902 51.64 43.6302 51.69L43.6302 51.23ZM50.3002 62.56L50.2402 62.47L50.3002 62.43L49.9002 62.2C49.8402 62.26 49.8102 62.32 49.7802 62.39L50.2402 62.66L50.3002 62.56ZM49.9002 62.2L46.6602 60.33L46.6602 60.58L49.7802 62.39C49.8102 62.32 49.8402 62.26 49.9002 62.2ZM46.6602 60.33L46.4402 60.2L46.4402 60.46L46.6602 60.58L46.6602 60.33ZM46.4402 60.2L44.2502 58.93C44.2402 58.97 44.2302 59 44.2102 59.04C44.1902 59.07 44.1702 59.1 44.1502 59.12L46.4402 60.46L46.4402 60.2ZM39.8902 28.95C39.8402 28.96 39.7802 28.98 39.7302 29.01C39.5102 29.14 39.4102 29.41 39.4902 29.65L39.8902 29.41L39.8902 28.95ZM46.6602 60.33L46.6602 57.66C46.5902 57.68 46.5202 57.68 46.4402 57.66L46.4402 60.2L46.6602 60.33ZM50.3002 62.43L50.7002 62.2C50.5402 62.01 50.2502 61.96 50.0302 62.1C49.9802 62.12 49.9302 62.16 49.9002 62.2L50.3002 62.43ZM50.2402 62.47L50.3002 62.56L50.3502 62.47L50.3002 62.43L50.2402 62.47ZM22.0602 59.52L21.1302 60.06L21.0202 59.87L21.9502 59.33C21.6302 58.89 21.0302 58.75 20.5402 59.03C20.0302 59.33 19.8502 59.98 20.1402 60.5C20.4402 61.03 21.0902 61.2 21.6102 60.9C22.1002 60.62 22.2902 60.02 22.0602 59.52ZM47.4902 49.13L49.7902 50.46C49.8102 50.39 49.8502 50.32 49.9002 50.27L47.7102 49L47.4902 49.13ZM50.3002 50.5L50.6902 50.27C50.5302 50.09 50.2502 50.04 50.0302 50.17C49.9802 50.2 49.9402 50.23 49.9002 50.27L50.3002 50.5ZM49.7902 50.46L50.2402 50.72L50.3002 50.63L50.2402 50.53L50.3002 50.5L49.9002 50.27C49.8502 50.32 49.8102 50.39 49.7902 50.46ZM50.2402 50.53L50.3002 50.63L50.3502 50.53L50.3002 50.5L50.2402 50.53ZM23.6602 51L26.8902 49.13L26.6702 49L23.5502 50.81C23.6002 50.86 23.6302 50.93 23.6602 51ZM53.3302 49L56.4502 47.19C56.4102 47.14 56.3702 47.07 56.3402 47L53.1102 48.87L53.3302 49ZM56.4502 47.19L56.9102 46.93L56.8502 46.83L56.7402 46.83L56.7402 46.77L56.3402 47C56.3702 47.07 56.4102 47.14 56.4502 47.19ZM56.7402 46.83L56.8502 46.83L56.8002 46.74L56.7402 46.77L56.7402 46.83ZM23.6602 58.93C23.6902 58.83 23.6902 58.73 23.6602 58.62C23.6602 58.61 23.6602 58.61 23.6602 58.6L23.3702 58.76L23.6602 58.93ZM29.7002 62.43L30.1002 62.2C29.9402 62.01 29.6602 61.96 29.4302 62.1C29.3802 62.12 29.3402 62.16 29.3002 62.2L29.7002 62.43ZM29.6502 62.47L29.7002 62.56L29.7602 62.47L29.7002 62.43L29.6502 62.47ZM39.8902 53.53L39.8902 53.87C39.9702 53.89 40.0402 53.89 40.1202 53.87L40.1202 53.53L40.0002 53.47L39.8902 53.53ZM39.6002 53.71C39.6802 53.79 39.7802 53.85 39.8902 53.87L39.8902 53.53L39.6002 53.71ZM36.1502 55.7L36.1502 58.23C36.1802 58.23 36.2202 58.22 36.2602 58.22C36.3002 58.22 36.3402 58.23 36.3702 58.23L36.3702 55.57L36.1502 55.7ZM36.3702 55.31L36.1502 55.44L36.1502 55.7L36.3702 55.57L36.3702 55.31ZM22.0602 59.52C22.0402 59.49 22.0302 59.46 22.0102 59.43C21.9902 59.39 21.9702 59.36 21.9502 59.33L21.0202 59.87L21.1302 60.06L22.0602 59.52ZM36.2602 51.04L36.6602 50.81C36.6302 50.77 36.5802 50.73 36.5302 50.7C36.3002 50.57 36.0202 50.63 35.8602 50.81L36.2602 51.04ZM33.3402 40.87L33.3402 40.34C33.1902 40.37 33.0602 40.46 32.9802 40.6C32.8302 40.86 32.9202 41.18 33.1802 41.33C33.4002 41.47 33.6802 41.42 33.8502 41.23L33.3902 40.96L33.4502 40.87L33.3402 40.87ZM39.8902 69.85L39.8902 70.92L40.1202 70.92L40.1202 69.85C40.0802 69.84 40.0402 69.84 40.0002 69.84C39.9702 69.84 39.9302 69.84 39.8902 69.85ZM40.1202 69.85L40.1202 69.06C40.0402 69.08 39.9702 69.08 39.8902 69.06L39.8902 69.85C39.9302 69.84 39.9702 69.84 40.0002 69.84C40.0402 69.84 40.0802 69.84 40.1202 69.85ZM23.5502 47.2L23.0902 46.93L23.1502 46.83L23.0302 46.83L23.0302 46.3C22.8902 46.33 22.7602 46.42 22.6802 46.56C22.5302 46.83 22.6202 47.15 22.8802 47.3C23.1002 47.43 23.3802 47.38 23.5502 47.2ZM57.2502 59.12L57.9402 59.52C57.9602 59.49 57.9702 59.46 57.9902 59.43C58.0102 59.39 58.0302 59.36 58.0502 59.33L57.3602 58.93C57.3402 59 57.3002 59.07 57.2502 59.12ZM23.2002 39.34L23.2602 39.3L23.2602 39.24L23.1502 39.24L23.2002 39.34ZM39.4902 68.36C39.4502 68.5 39.4602 68.66 39.5402 68.8C39.6202 68.94 39.7502 69.03 39.8902 69.06L39.8902 68.6L39.4902 68.36ZM33.5602 60.46L35.8602 59.12C35.8102 59.07 35.7702 59 35.7502 58.93L33.5602 60.2L33.5602 60.46ZM31.9802 53.52L33.5402 52.62L33.5402 52.62L34.3002 52.18C33.9102 51.6 33.1402 51.42 32.5202 51.78C31.9102 52.13 31.6902 52.89 31.9802 53.52ZM56.8002 39.34L56.7402 39.3L56.7402 39.43L56.9702 39.31L56.9702 39.24L56.8502 39.24L56.8002 39.34ZM56.7402 39.24L56.7402 39.3L56.8002 39.34L56.8502 39.24L56.7402 39.24ZM36.1502 58.7L36.1502 58.23C35.9102 58.28 35.7202 58.5 35.7202 58.76C35.7202 58.82 35.7302 58.88 35.7502 58.93L36.1502 58.7ZM33.6502 52.81L33.5402 52.62L33.1402 52.85L33.2502 53.04L33.6502 52.81ZM57.3702 39.07L56.9702 39.31L56.9702 39.77C57.1102 39.74 57.2402 39.65 57.3202 39.51C57.4002 39.37 57.4102 39.21 57.3702 39.07ZM56.9702 39.31L56.7402 39.43L56.7402 39.77C56.8202 39.79 56.8902 39.79 56.9702 39.77L56.9702 39.31ZM56.7402 39.43L56.4602 39.6C56.4902 39.64 56.5402 39.68 56.5902 39.71C56.6402 39.74 56.6902 39.76 56.7402 39.77L56.7402 39.43ZM56.7402 39.3L56.6302 39.24L56.3402 39.41C56.3702 39.48 56.4002 39.54 56.4602 39.6L56.7402 39.43L56.7402 39.3ZM36.3702 55.31L36.3702 51.7C36.3002 51.71 36.2202 51.71 36.1502 51.7L36.1502 55.44L36.3702 55.31ZM46.6602 57.66L46.6602 57.13L46.5502 57.13L46.5002 57.23L46.4402 57.2L46.4402 57.66C46.5202 57.68 46.5902 57.68 46.6602 57.66ZM46.5002 57.23L46.5502 57.13L46.4402 57.13L46.4402 57.2L46.5002 57.23ZM56.3402 39.07C56.3002 39.18 56.3102 39.3 56.3402 39.41L56.6302 39.24L56.3402 39.07ZM50.3502 35.54L50.3002 35.45L50.2402 35.54L50.3002 35.57L50.3502 35.54Z"></path><path id="Subtract" fill-rule="evenodd" fill="url(#linear_6)" opacity="1" d="M58.0002 34C53.9802 28.57 47.1902 25 39.5002 25C31.8102 25 25.0202 28.57 21.0002 34L58.0002 34Z"></path><path id="Subtract" fill-rule="evenodd" fill="url(#linear_7)" opacity="1" d="M40.0002 72.78C47.9002 72.78 54.8702 69.21 59.0002 63.78L21.0002 63.78C25.1302 69.21 32.1002 72.78 40.0002 72.78Z"></path><g opacity="1" transform="translate(24.000244140625 38)  rotate(0)"><g id="undefined" filter="url(#filter_64)"></g><path id="路径" fill-rule="evenodd" style="fill:#FFFFFF" opacity="0.5" d="M11.0201 12.42L13.5101 8.97001L8.94008 6.26001L5.83008 9.81001L11.0201 12.42Z"></path><path id="路径" fill-rule="evenodd" style="fill:#FFFFFF" opacity="0.48" d="M10.2 11.27L12.38 8.35001L8.94995 6.26001L10.2 11.27Z"></path><path id="路径" fill-rule="evenodd" style="fill:#FFF9E9" opacity="1" d="M7.70008 18.36L16.0101 18.36L16.0101 3.70003C16.0101 3.61003 15.9801 3.52003 15.9301 3.45003C15.8801 3.38003 15.8001 3.32003 15.7101 3.30003C15.6301 3.27003 15.5401 3.27003 15.4501 3.31003C15.3701 3.34003 15.3001 3.40003 15.2501 3.47003L10.4101 10.94C10.3501 11.03 10.2601 11.09 10.1601 11.12C10.0501 11.14 9.95008 11.13 9.85008 11.07L2.95008 7.17003C2.87008 7.13003 2.79008 7.11003 2.70008 7.12003C2.61008 7.13003 2.53008 7.17003 2.47008 7.23003C2.40008 7.28003 2.36008 7.36003 2.34008 7.45003C2.32008 7.53003 2.33008 7.62003 2.36008 7.70003L6.55008 17.6C6.64008 17.82 6.80008 18.02 7.01008 18.15C7.21008 18.29 7.45008 18.36 7.70008 18.36Z"></path><path id="路径" fill-rule="evenodd" style="fill:#FFFFFF" opacity="0.5" d="M23.07 6.26001L18.5 8.97001L20.99 12.42L26.18 9.81001L23.07 6.26001Z"></path><path id="路径" fill-rule="evenodd" style="fill:#FFFFFF" opacity="0.48" d="M19.6399 8.35001L21.8199 11.27L23.0699 6.26001L19.6399 8.35001Z"></path><path id="路径" fill-rule="evenodd" style="fill:#FFFFFF" opacity="1" d="M29.32 7.12003C29.23 7.11003 29.15 7.13003 29.07 7.17003L22.16 11.07C22.07 11.12 21.96 11.14 21.86 11.11C21.76 11.09 21.67 11.03 21.61 10.94L16.77 3.47003C16.72 3.40003 16.65 3.34003 16.57 3.31003C16.48 3.27003 16.39 3.27003 16.31 3.30003C16.22 3.32003 16.14 3.38003 16.09 3.45003C16.04 3.52003 16.01 3.61003 16.01 3.70003L16.01 18.36L24.33 18.36C24.57 18.36 24.81 18.29 25.02 18.15C25.22 18.02 25.38 17.82 25.47 17.6L29.66 7.70003L29.66 7.70003C29.69 7.62003 29.7 7.53003 29.68 7.44003C29.66 7.36003 29.62 7.28003 29.55 7.22003C29.49 7.17003 29.41 7.13003 29.32 7.12003Z"></path><path id="路径" fill-rule="evenodd" style="fill:#FFE7CA" opacity="1" d="M8.53003 18.36L23.48 18.36L16.01 13.56L8.53003 18.36Z"></path><path id="形状" fill-rule="evenodd" style="fill:#FFFFFF" opacity="1" d="M17.88,1.88c0,0.24 -0.05,0.49 -0.14,0.71c-0.1,0.23 -0.23,0.44 -0.41,0.61c-0.17,0.18 -0.38,0.31 -0.6,0.41c-0.23,0.09 -0.47,0.14 -0.72,0.14v0.01c-0.37,0 -0.74,-0.11 -1.05,-0.32c-0.31,-0.2 -0.55,-0.49 -0.69,-0.84c-0.15,-0.34 -0.18,-0.72 -0.11,-1.08c0.07,-0.37 0.25,-0.7 0.51,-0.97c0.26,-0.26 0.6,-0.44 0.96,-0.51c0.36,-0.08 0.74,-0.04 1.09,0.1c0.34,0.14 0.63,0.38 0.84,0.69c0.21,0.31 0.32,0.68 0.32,1.05zM30.13,8.34zM28.26,6.46c0,-0.33 0.09,-0.65 0.25,-0.94c0.17,-0.28 0.4,-0.51 0.69,-0.68c0.28,-0.16 0.61,-0.24 0.93,-0.24c0.33,0 0.65,0.09 0.94,0.25c0.28,0.17 0.52,0.4 0.68,0.69c0.16,0.28 0.25,0.6 0.25,0.93c0,0.33 -0.09,0.65 -0.25,0.93c-0.16,0.29 -0.4,0.52 -0.68,0.69c-0.29,0.16 -0.61,0.25 -0.94,0.25c-0.33,0 -0.65,-0.09 -0.93,-0.25c-0.29,-0.17 -0.52,-0.4 -0.69,-0.69c-0.16,-0.28 -0.25,-0.61 -0.25,-0.94zM1.51,4.62c0.36,-0.07 0.74,-0.04 1.09,0.11c0.34,0.14 0.63,0.38 0.84,0.69c0.21,0.31 0.32,0.67 0.32,1.04c0,0.25 -0.05,0.49 -0.14,0.72c-0.1,0.23 -0.23,0.44 -0.41,0.61c-0.17,0.17 -0.38,0.31 -0.6,0.41c-0.23,0.09 -0.48,0.14 -0.72,0.14c-0.37,0 -0.74,-0.11 -1.05,-0.31c-0.31,-0.21 -0.55,-0.5 -0.69,-0.84c-0.15,-0.35 -0.19,-0.72 -0.12,-1.09c0.08,-0.36 0.25,-0.7 0.52,-0.96c0.26,-0.27 0.59,-0.45 0.96,-0.52z"></path></g></g><defs><linearGradient id="linear_0" x1="52.56632413064929%" y1="7.313029752614726%" x2="53.56632413064929%" y2="107.43017072984141%" gradientUnits="objectBoundingBox"><stop offset="0" stop-color="#FFDD9A" stop-opacity="1" /><stop offset="1" stop-color="#FFA81C" stop-opacity="1" /></linearGradient><linearGradient id="linear_1" x1="49.25194280020534%" y1="-0.3782537961763648%" x2="50.25194280020534%" y2="99.75935381067426%" gradientUnits="objectBoundingBox"><stop offset="0" stop-color="#FFEAB6" stop-opacity="1" /><stop offset="1" stop-color="#FFBF1B" stop-opacity="1" /></linearGradient><linearGradient id="linear_2" x1="50.102727766034704%" y1="129.52550019097217%" x2="51.102727766034704%" y2="-0.47983649154852426%" gradientUnits="objectBoundingBox"><stop offset="0.21839261054992676" stop-color="#FFCE51" stop-opacity="1" /><stop offset="0.9574248194694519" stop-color="#FFA91B" stop-opacity="1" /></linearGradient><linearGradient id="linear_3" x1="50%" y1="0%" x2="51%" y2="100%" gradientUnits="objectBoundingBox"><stop offset="0" stop-color="#FFB336" stop-opacity="1" /><stop offset="1" stop-color="#FFFCE0" stop-opacity="0.76" /></linearGradient><linearGradient id="linear_4" x1="50.102732634352165%" y1="-0.5132440765923802%" x2="51.102732634352165%" y2="99.62585179546424%" gradientUnits="objectBoundingBox"><stop offset="0" stop-color="#FFD76F" stop-opacity="1" /><stop offset="1" stop-color="#FD9010" stop-opacity="1" /></linearGradient><filter id="filter_56" x="12.30029296875" y="21.0999755859375" width="55.21000000000001" height="54.67" filterUnits="userSpaceOnUse" color-interpolation-filters="sRGB"><feFlood flood-opacity="0" result="BackgroundImageFix"/>
          <feBlend mode="normal" in="SourceGraphic" in2="BackgroundImageFix" result="shape"/>
          <feColorMatrix in="SourceAlpha" type="matrix" values="0 0 0 0 0 0 0 0 0 0 0 0 0 0 0 0 0 0 127 0" result="hardAlpha"/>
          
          <feOffset dx="0" dy="-1"/>
          <feGaussianBlur stdDeviation="1.5"/>
          <feComposite in2="hardAlpha" operator="arithmetic" k2="-1" k3="1"/>
          <feColorMatrix type="matrix" values="0 0 0 0 0.8784313725490196 0 0 0 0 0.5529411764705883 0 0 0 0 0 0 0 0 0.4 0"/>
          <feBlend mode="normal" in2="shape" result="effect1_Shadow"/></filter><linearGradient id="linear_5" x1="50%" y1="0%" x2="51%" y2="100%" gradientUnits="objectBoundingBox"><stop offset="0" stop-color="#FFE3A7" stop-opacity="1" /><stop offset="1" stop-color="#FD9C1F" stop-opacity="1" /></linearGradient><linearGradient id="linear_6" x1="50.124106002735125%" y1="-2.3381119550233134%" x2="51.124106002735125%" y2="200.00000471105142%" gradientUnits="objectBoundingBox"><stop offset="0" stop-color="#FFFFFF" stop-opacity="0.5" /><stop offset="0.4026834964752197" stop-color="#FFFFFF" stop-opacity="0" /></linearGradient><linearGradient id="linear_7" x1="50.000002848988366%" y1="91.29367497168921%" x2="50.124108855253404%" y2="-97.59521764387955%" gradientUnits="objectBoundingBox"><stop offset="0" stop-color="#FF2ED1" stop-opacity="0.30000001192092896" /><stop offset="0.436056911945343" stop-color="#E43FFF" stop-opacity="0" /></linearGradient><filter id="filter_64" x="71" y="435" width="36" height="22.360000000000014" filterUnits="userSpaceOnUse" color-interpolation-filters="sRGB"><feFlood flood-opacity="0" result="BackgroundImageFix"/>
          <feColorMatrix in="SourceAlpha" type="matrix" values="0 0 0 0 0 0 0 0 0 0 0 0 0 0 0 0 0 0 127 0"/>
          
          <feOffset dx="0" dy="1"/>
          <feGaussianBlur stdDeviation="1"/>
          <feColorMatrix type="matrix" values="0 0 0 0 0.9921568627450981 0 0 0 0 0.5647058823529412 0 0 0 0 0.06274509803921569 0 0 0 1 0"/>
          <feBlend mode="normal" in2="BackgroundImageFix" result="effect1_Shadow"/>
          <feBlend mode="normal" in="SourceGraphic" in2="effect1_Shadow" result="shape"/></filter></defs></svg>