<svg xmlns="http://www.w3.org/2000/svg" xmlns:xlink="http://www.w3.org/1999/xlink" width="200" height="200" viewBox="0 0 200 200" fill="none">
<g opacity="1" transform="translate(0 0)  rotate(0)">
<mask id="bg-mask-0" fill="white"><use xlink:href="#path_0"></use></mask><g mask="url(#bg-mask-0)" ><path id="分组 1" fill-rule="evenodd" style="fill:#eee" opacity="1" d="M100,135c-19.32,0 -35,-15.68 -35,-35c0,-19.32 15.68,-35 35,-35c19.33,0 35,15.67 35,35c0,19.32 -15.68,35 -35,35zM125,100c0,-13.8 -11.2,-25 -25,-25c-13.8,0 -25,11.2 -25,25c0,13.8 11.2,25 25,25c13.8,0 25,-11.2 25,-25z"></path><path id="分组 2" fill-rule="evenodd" style="fill:#eee" opacity="1" d="M11.65,153l17,-17c-1.81,-3.55 -3.34,-7.22 -4.6,-11h-24.05v-50h24.05c1.24,-3.79 2.76,-7.49 4.55,-11.05l-17,-17l35.4,-35.3l17,17c3.55,-1.81 7.22,-3.34 11,-4.6v-24.05h50v24.05c3.79,1.24 7.49,2.76 11.05,4.55l17,-17l35.3,35.4l-17,17c1.81,3.55 3.34,7.22 4.6,11h24.05v50h-24.05c-1.26,3.78 -2.79,7.45 -4.6,11l17,17l-35.35,35.35l-17,-17c-3.55,1.81 -7.22,3.34 -11,4.6v24.05h-50v-24.05c-3.78,-1.26 -7.45,-2.79 -11,-4.6l-17,17zM137.95,40.8l-6.45,-3.25c-3.1,-1.57 -6.3,-2.91 -9.6,-4l-6.9,-2.25v-21.3h-30v21.3l-7,2.2c-3.3,1.09 -6.5,2.43 -9.6,4l-6.45,3.25l-15,-15l-21.15,21.35l15,15l-3.25,6.45c-1.57,3.1 -2.91,6.3 -4,9.6l-2.25,6.85h-21.3v30h21.3l2.25,6.9c1.09,3.29 2.43,6.5 4,9.6l3.2,6.55l-15,15l21.35,21.15l15,-15l6.45,3.25c3.1,1.57 6.3,2.91 9.6,4l6.85,2.25v21.3h30v-21.3l6.95,-2.3c3.3,-1.09 6.5,-2.43 9.6,-4l6.45,-3.25l15,15l21.2,-21.2l-15,-15l3.25,-6.45c1.57,-3.1 2.91,-6.31 4,-9.6l2.25,-6.9h21.3v-30h-21.3l-2.3,-6.95c-1.09,-3.3 -2.43,-6.5 -4,-9.6l-3.25,-6.45l15,-15l-21.2,-21.2z"></path></g></g><defs><rect id="path_0" x="0" y="0" width="200" height="200" /></defs></svg>